ISO-10303-21;
HEADER;
/* Generated by software containing ST-Developer
 * from STEP Tools, Inc. (www.steptools.com) 
 */

FILE_DESCRIPTION(
/* description */ (''),
/* implementation_level */ '2;1');

FILE_NAME(
/* name */ 'Print.step',
/* time_stamp */ '2026-04-09T21:22:45+05:30',
/* author */ (''),
/* organization */ (''),
/* preprocessor_version */ 'ST-DEVELOPER v20.1',
/* originating_system */ 'Autodesk Translation Framework v14.24.0.0',
/* authorisation */ '');

FILE_SCHEMA (('AUTOMOTIVE_DESIGN { 1 0 10303 214 3 1 1 }'));
ENDSEC;

DATA;
#10=MECHANICAL_DESIGN_GEOMETRIC_PRESENTATION_REPRESENTATION('',(#13),#914);
#11=SHAPE_REPRESENTATION_RELATIONSHIP('SRR','None',#921,#12);
#12=ADVANCED_BREP_SHAPE_REPRESENTATION('',(#14),#913);
#13=STYLED_ITEM('',(#930),#14);
#14=MANIFOLD_SOLID_BREP('Body1',#574);
#15=CIRCLE('',#603,10.0224747921677);
#16=CIRCLE('',#604,10.0224747921677);
#17=CYLINDRICAL_SURFACE('',#602,10.0224747921677);
#18=FACE_BOUND('',#58,.T.);
#19=FACE_BOUND('',#64,.T.);
#20=FACE_BOUND('',#76,.T.);
#21=FACE_BOUND('',#77,.T.);
#22=FACE_BOUND('',#78,.T.);
#23=FACE_BOUND('',#82,.T.);
#24=FACE_BOUND('',#91,.T.);
#25=FACE_BOUND('',#92,.T.);
#26=FACE_BOUND('',#93,.T.);
#27=FACE_BOUND('',#95,.T.);
#28=FACE_OUTER_BOUND('',#57,.T.);
#29=FACE_OUTER_BOUND('',#59,.T.);
#30=FACE_OUTER_BOUND('',#60,.T.);
#31=FACE_OUTER_BOUND('',#61,.T.);
#32=FACE_OUTER_BOUND('',#62,.T.);
#33=FACE_OUTER_BOUND('',#63,.T.);
#34=FACE_OUTER_BOUND('',#65,.T.);
#35=FACE_OUTER_BOUND('',#66,.T.);
#36=FACE_OUTER_BOUND('',#67,.T.);
#37=FACE_OUTER_BOUND('',#68,.T.);
#38=FACE_OUTER_BOUND('',#69,.T.);
#39=FACE_OUTER_BOUND('',#70,.T.);
#40=FACE_OUTER_BOUND('',#71,.T.);
#41=FACE_OUTER_BOUND('',#72,.T.);
#42=FACE_OUTER_BOUND('',#73,.T.);
#43=FACE_OUTER_BOUND('',#74,.T.);
#44=FACE_OUTER_BOUND('',#75,.T.);
#45=FACE_OUTER_BOUND('',#79,.T.);
#46=FACE_OUTER_BOUND('',#80,.T.);
#47=FACE_OUTER_BOUND('',#81,.T.);
#48=FACE_OUTER_BOUND('',#83,.T.);
#49=FACE_OUTER_BOUND('',#84,.T.);
#50=FACE_OUTER_BOUND('',#85,.T.);
#51=FACE_OUTER_BOUND('',#86,.T.);
#52=FACE_OUTER_BOUND('',#87,.T.);
#53=FACE_OUTER_BOUND('',#88,.T.);
#54=FACE_OUTER_BOUND('',#89,.T.);
#55=FACE_OUTER_BOUND('',#90,.T.);
#56=FACE_OUTER_BOUND('',#94,.T.);
#57=EDGE_LOOP('',(#367,#368,#369,#370));
#58=EDGE_LOOP('',(#371,#372,#373,#374));
#59=EDGE_LOOP('',(#375,#376,#377,#378));
#60=EDGE_LOOP('',(#379,#380,#381,#382));
#61=EDGE_LOOP('',(#383,#384,#385,#386));
#62=EDGE_LOOP('',(#387,#388,#389,#390));
#63=EDGE_LOOP('',(#391,#392,#393,#394));
#64=EDGE_LOOP('',(#395,#396,#397,#398));
#65=EDGE_LOOP('',(#399,#400,#401,#402));
#66=EDGE_LOOP('',(#403,#404,#405,#406));
#67=EDGE_LOOP('',(#407,#408,#409,#410));
#68=EDGE_LOOP('',(#411,#412,#413,#414));
#69=EDGE_LOOP('',(#415,#416,#417,#418));
#70=EDGE_LOOP('',(#419,#420,#421,#422));
#71=EDGE_LOOP('',(#423,#424,#425,#426));
#72=EDGE_LOOP('',(#427,#428,#429,#430));
#73=EDGE_LOOP('',(#431,#432,#433,#434));
#74=EDGE_LOOP('',(#435,#436,#437,#438));
#75=EDGE_LOOP('',(#439,#440,#441,#442));
#76=EDGE_LOOP('',(#443,#444,#445,#446));
#77=EDGE_LOOP('',(#447,#448,#449,#450));
#78=EDGE_LOOP('',(#451));
#79=EDGE_LOOP('',(#452,#453,#454,#455));
#80=EDGE_LOOP('',(#456,#457,#458,#459));
#81=EDGE_LOOP('',(#460,#461,#462,#463));
#82=EDGE_LOOP('',(#464,#465,#466,#467));
#83=EDGE_LOOP('',(#468,#469,#470,#471));
#84=EDGE_LOOP('',(#472,#473,#474,#475));
#85=EDGE_LOOP('',(#476,#477,#478,#479));
#86=EDGE_LOOP('',(#480,#481,#482,#483));
#87=EDGE_LOOP('',(#484,#485,#486,#487));
#88=EDGE_LOOP('',(#488,#489,#490,#491));
#89=EDGE_LOOP('',(#492,#493,#494,#495));
#90=EDGE_LOOP('',(#496,#497,#498,#499));
#91=EDGE_LOOP('',(#500,#501,#502,#503));
#92=EDGE_LOOP('',(#504,#505,#506,#507));
#93=EDGE_LOOP('',(#508));
#94=EDGE_LOOP('',(#509,#510,#511,#512));
#95=EDGE_LOOP('',(#513,#514,#515,#516));
#96=LINE('',#760,#169);
#97=LINE('',#762,#170);
#98=LINE('',#764,#171);
#99=LINE('',#765,#172);
#100=LINE('',#768,#173);
#101=LINE('',#770,#174);
#102=LINE('',#772,#175);
#103=LINE('',#773,#176);
#104=LINE('',#776,#177);
#105=LINE('',#778,#178);
#106=LINE('',#779,#179);
#107=LINE('',#782,#180);
#108=LINE('',#783,#181);
#109=LINE('',#786,#182);
#110=LINE('',#787,#183);
#111=LINE('',#789,#184);
#112=LINE('',#793,#185);
#113=LINE('',#795,#186);
#114=LINE('',#797,#187);
#115=LINE('',#798,#188);
#116=LINE('',#802,#189);
#117=LINE('',#804,#190);
#118=LINE('',#806,#191);
#119=LINE('',#807,#192);
#120=LINE('',#810,#193);
#121=LINE('',#812,#194);
#122=LINE('',#813,#195);
#123=LINE('',#816,#196);
#124=LINE('',#818,#197);
#125=LINE('',#819,#198);
#126=LINE('',#821,#199);
#127=LINE('',#822,#200);
#128=LINE('',#826,#201);
#129=LINE('',#828,#202);
#130=LINE('',#830,#203);
#131=LINE('',#831,#204);
#132=LINE('',#834,#205);
#133=LINE('',#836,#206);
#134=LINE('',#837,#207);
#135=LINE('',#840,#208);
#136=LINE('',#842,#209);
#137=LINE('',#843,#210);
#138=LINE('',#845,#211);
#139=LINE('',#846,#212);
#140=LINE('',#851,#213);
#141=LINE('',#855,#214);
#142=LINE('',#857,#215);
#143=LINE('',#858,#216);
#144=LINE('',#861,#217);
#145=LINE('',#862,#218);
#146=LINE('',#865,#219);
#147=LINE('',#866,#220);
#148=LINE('',#868,#221);
#149=LINE('',#872,#222);
#150=LINE('',#874,#223);
#151=LINE('',#876,#224);
#152=LINE('',#877,#225);
#153=LINE('',#880,#226);
#154=LINE('',#882,#227);
#155=LINE('',#883,#228);
#156=LINE('',#886,#229);
#157=LINE('',#887,#230);
#158=LINE('',#890,#231);
#159=LINE('',#891,#232);
#160=LINE('',#893,#233);
#161=LINE('',#897,#234);
#162=LINE('',#898,#235);
#163=LINE('',#899,#236);
#164=LINE('',#902,#237);
#165=LINE('',#903,#238);
#166=LINE('',#906,#239);
#167=LINE('',#907,#240);
#168=LINE('',#909,#241);
#169=VECTOR('',#623,10.);
#170=VECTOR('',#624,10.);
#171=VECTOR('',#625,10.);
#172=VECTOR('',#626,10.);
#173=VECTOR('',#627,10.);
#174=VECTOR('',#628,10.);
#175=VECTOR('',#629,10.);
#176=VECTOR('',#630,10.);
#177=VECTOR('',#633,10.);
#178=VECTOR('',#634,10.);
#179=VECTOR('',#635,10.);
#180=VECTOR('',#638,10.);
#181=VECTOR('',#639,10.);
#182=VECTOR('',#642,10.);
#183=VECTOR('',#643,10.);
#184=VECTOR('',#646,10.);
#185=VECTOR('',#649,10.);
#186=VECTOR('',#650,10.);
#187=VECTOR('',#651,10.);
#188=VECTOR('',#652,10.);
#189=VECTOR('',#655,10.);
#190=VECTOR('',#656,10.);
#191=VECTOR('',#657,10.);
#192=VECTOR('',#658,10.);
#193=VECTOR('',#661,10.);
#194=VECTOR('',#662,10.);
#195=VECTOR('',#663,10.);
#196=VECTOR('',#666,10.);
#197=VECTOR('',#667,10.);
#198=VECTOR('',#668,10.);
#199=VECTOR('',#671,10.);
#200=VECTOR('',#672,10.);
#201=VECTOR('',#675,10.);
#202=VECTOR('',#676,10.);
#203=VECTOR('',#677,10.);
#204=VECTOR('',#678,10.);
#205=VECTOR('',#681,10.);
#206=VECTOR('',#682,10.);
#207=VECTOR('',#683,10.);
#208=VECTOR('',#686,10.);
#209=VECTOR('',#687,10.);
#210=VECTOR('',#688,10.);
#211=VECTOR('',#691,10.);
#212=VECTOR('',#692,10.);
#213=VECTOR('',#697,10.0224747921677);
#214=VECTOR('',#702,10.);
#215=VECTOR('',#703,10.);
#216=VECTOR('',#704,10.);
#217=VECTOR('',#707,10.);
#218=VECTOR('',#708,10.);
#219=VECTOR('',#711,10.);
#220=VECTOR('',#712,10.);
#221=VECTOR('',#715,10.);
#222=VECTOR('',#718,10.);
#223=VECTOR('',#719,10.);
#224=VECTOR('',#720,10.);
#225=VECTOR('',#721,10.);
#226=VECTOR('',#724,10.);
#227=VECTOR('',#725,10.);
#228=VECTOR('',#726,10.);
#229=VECTOR('',#729,10.);
#230=VECTOR('',#730,10.);
#231=VECTOR('',#733,10.);
#232=VECTOR('',#734,10.);
#233=VECTOR('',#737,10.);
#234=VECTOR('',#740,10.);
#235=VECTOR('',#741,10.);
#236=VECTOR('',#742,10.);
#237=VECTOR('',#745,10.);
#238=VECTOR('',#746,10.);
#239=VECTOR('',#749,10.);
#240=VECTOR('',#750,10.);
#241=VECTOR('',#753,10.);
#242=VERTEX_POINT('',#758);
#243=VERTEX_POINT('',#759);
#244=VERTEX_POINT('',#761);
#245=VERTEX_POINT('',#763);
#246=VERTEX_POINT('',#766);
#247=VERTEX_POINT('',#767);
#248=VERTEX_POINT('',#769);
#249=VERTEX_POINT('',#771);
#250=VERTEX_POINT('',#775);
#251=VERTEX_POINT('',#777);
#252=VERTEX_POINT('',#781);
#253=VERTEX_POINT('',#785);
#254=VERTEX_POINT('',#791);
#255=VERTEX_POINT('',#792);
#256=VERTEX_POINT('',#794);
#257=VERTEX_POINT('',#796);
#258=VERTEX_POINT('',#800);
#259=VERTEX_POINT('',#801);
#260=VERTEX_POINT('',#803);
#261=VERTEX_POINT('',#805);
#262=VERTEX_POINT('',#809);
#263=VERTEX_POINT('',#811);
#264=VERTEX_POINT('',#815);
#265=VERTEX_POINT('',#817);
#266=VERTEX_POINT('',#824);
#267=VERTEX_POINT('',#825);
#268=VERTEX_POINT('',#827);
#269=VERTEX_POINT('',#829);
#270=VERTEX_POINT('',#833);
#271=VERTEX_POINT('',#835);
#272=VERTEX_POINT('',#839);
#273=VERTEX_POINT('',#841);
#274=VERTEX_POINT('',#848);
#275=VERTEX_POINT('',#850);
#276=VERTEX_POINT('',#854);
#277=VERTEX_POINT('',#856);
#278=VERTEX_POINT('',#860);
#279=VERTEX_POINT('',#864);
#280=VERTEX_POINT('',#870);
#281=VERTEX_POINT('',#871);
#282=VERTEX_POINT('',#873);
#283=VERTEX_POINT('',#875);
#284=VERTEX_POINT('',#879);
#285=VERTEX_POINT('',#881);
#286=VERTEX_POINT('',#885);
#287=VERTEX_POINT('',#889);
#288=VERTEX_POINT('',#895);
#289=VERTEX_POINT('',#896);
#290=VERTEX_POINT('',#901);
#291=VERTEX_POINT('',#905);
#292=EDGE_CURVE('',#242,#243,#96,.T.);
#293=EDGE_CURVE('',#243,#244,#97,.T.);
#294=EDGE_CURVE('',#244,#245,#98,.T.);
#295=EDGE_CURVE('',#245,#242,#99,.T.);
#296=EDGE_CURVE('',#246,#247,#100,.T.);
#297=EDGE_CURVE('',#248,#246,#101,.T.);
#298=EDGE_CURVE('',#249,#248,#102,.T.);
#299=EDGE_CURVE('',#247,#249,#103,.T.);
#300=EDGE_CURVE('',#246,#250,#104,.T.);
#301=EDGE_CURVE('',#251,#250,#105,.T.);
#302=EDGE_CURVE('',#248,#251,#106,.T.);
#303=EDGE_CURVE('',#252,#251,#107,.T.);
#304=EDGE_CURVE('',#249,#252,#108,.T.);
#305=EDGE_CURVE('',#253,#252,#109,.T.);
#306=EDGE_CURVE('',#247,#253,#110,.T.);
#307=EDGE_CURVE('',#250,#253,#111,.T.);
#308=EDGE_CURVE('',#254,#255,#112,.T.);
#309=EDGE_CURVE('',#255,#256,#113,.T.);
#310=EDGE_CURVE('',#256,#257,#114,.T.);
#311=EDGE_CURVE('',#257,#254,#115,.T.);
#312=EDGE_CURVE('',#258,#259,#116,.T.);
#313=EDGE_CURVE('',#260,#258,#117,.T.);
#314=EDGE_CURVE('',#261,#260,#118,.T.);
#315=EDGE_CURVE('',#261,#259,#119,.T.);
#316=EDGE_CURVE('',#259,#262,#120,.T.);
#317=EDGE_CURVE('',#263,#261,#121,.T.);
#318=EDGE_CURVE('',#263,#262,#122,.T.);
#319=EDGE_CURVE('',#262,#264,#123,.T.);
#320=EDGE_CURVE('',#265,#263,#124,.T.);
#321=EDGE_CURVE('',#265,#264,#125,.T.);
#322=EDGE_CURVE('',#264,#258,#126,.T.);
#323=EDGE_CURVE('',#260,#265,#127,.T.);
#324=EDGE_CURVE('',#266,#267,#128,.T.);
#325=EDGE_CURVE('',#268,#266,#129,.T.);
#326=EDGE_CURVE('',#269,#268,#130,.T.);
#327=EDGE_CURVE('',#269,#267,#131,.T.);
#328=EDGE_CURVE('',#267,#270,#132,.T.);
#329=EDGE_CURVE('',#271,#269,#133,.T.);
#330=EDGE_CURVE('',#271,#270,#134,.T.);
#331=EDGE_CURVE('',#270,#272,#135,.T.);
#332=EDGE_CURVE('',#273,#271,#136,.T.);
#333=EDGE_CURVE('',#273,#272,#137,.T.);
#334=EDGE_CURVE('',#272,#266,#138,.T.);
#335=EDGE_CURVE('',#268,#273,#139,.T.);
#336=EDGE_CURVE('',#274,#274,#15,.T.);
#337=EDGE_CURVE('',#274,#275,#140,.T.);
#338=EDGE_CURVE('',#275,#275,#16,.T.);
#339=EDGE_CURVE('',#242,#276,#141,.T.);
#340=EDGE_CURVE('',#276,#277,#142,.T.);
#341=EDGE_CURVE('',#243,#277,#143,.T.);
#342=EDGE_CURVE('',#245,#278,#144,.T.);
#343=EDGE_CURVE('',#278,#276,#145,.T.);
#344=EDGE_CURVE('',#244,#279,#146,.T.);
#345=EDGE_CURVE('',#279,#278,#147,.T.);
#346=EDGE_CURVE('',#277,#279,#148,.T.);
#347=EDGE_CURVE('',#280,#281,#149,.T.);
#348=EDGE_CURVE('',#282,#280,#150,.T.);
#349=EDGE_CURVE('',#283,#282,#151,.T.);
#350=EDGE_CURVE('',#281,#283,#152,.T.);
#351=EDGE_CURVE('',#284,#282,#153,.T.);
#352=EDGE_CURVE('',#285,#284,#154,.T.);
#353=EDGE_CURVE('',#285,#283,#155,.T.);
#354=EDGE_CURVE('',#286,#280,#156,.T.);
#355=EDGE_CURVE('',#284,#286,#157,.T.);
#356=EDGE_CURVE('',#287,#281,#158,.T.);
#357=EDGE_CURVE('',#286,#287,#159,.T.);
#358=EDGE_CURVE('',#287,#285,#160,.T.);
#359=EDGE_CURVE('',#288,#289,#161,.T.);
#360=EDGE_CURVE('',#288,#256,#162,.T.);
#361=EDGE_CURVE('',#289,#255,#163,.T.);
#362=EDGE_CURVE('',#289,#290,#164,.T.);
#363=EDGE_CURVE('',#290,#254,#165,.T.);
#364=EDGE_CURVE('',#290,#291,#166,.T.);
#365=EDGE_CURVE('',#291,#257,#167,.T.);
#366=EDGE_CURVE('',#291,#288,#168,.T.);
#367=ORIENTED_EDGE('',*,*,#292,.T.);
#368=ORIENTED_EDGE('',*,*,#293,.T.);
#369=ORIENTED_EDGE('',*,*,#294,.T.);
#370=ORIENTED_EDGE('',*,*,#295,.T.);
#371=ORIENTED_EDGE('',*,*,#296,.F.);
#372=ORIENTED_EDGE('',*,*,#297,.F.);
#373=ORIENTED_EDGE('',*,*,#298,.F.);
#374=ORIENTED_EDGE('',*,*,#299,.F.);
#375=ORIENTED_EDGE('',*,*,#297,.T.);
#376=ORIENTED_EDGE('',*,*,#300,.T.);
#377=ORIENTED_EDGE('',*,*,#301,.F.);
#378=ORIENTED_EDGE('',*,*,#302,.F.);
#379=ORIENTED_EDGE('',*,*,#298,.T.);
#380=ORIENTED_EDGE('',*,*,#302,.T.);
#381=ORIENTED_EDGE('',*,*,#303,.F.);
#382=ORIENTED_EDGE('',*,*,#304,.F.);
#383=ORIENTED_EDGE('',*,*,#299,.T.);
#384=ORIENTED_EDGE('',*,*,#304,.T.);
#385=ORIENTED_EDGE('',*,*,#305,.F.);
#386=ORIENTED_EDGE('',*,*,#306,.F.);
#387=ORIENTED_EDGE('',*,*,#296,.T.);
#388=ORIENTED_EDGE('',*,*,#306,.T.);
#389=ORIENTED_EDGE('',*,*,#307,.F.);
#390=ORIENTED_EDGE('',*,*,#300,.F.);
#391=ORIENTED_EDGE('',*,*,#308,.T.);
#392=ORIENTED_EDGE('',*,*,#309,.T.);
#393=ORIENTED_EDGE('',*,*,#310,.T.);
#394=ORIENTED_EDGE('',*,*,#311,.T.);
#395=ORIENTED_EDGE('',*,*,#307,.T.);
#396=ORIENTED_EDGE('',*,*,#305,.T.);
#397=ORIENTED_EDGE('',*,*,#303,.T.);
#398=ORIENTED_EDGE('',*,*,#301,.T.);
#399=ORIENTED_EDGE('',*,*,#312,.F.);
#400=ORIENTED_EDGE('',*,*,#313,.F.);
#401=ORIENTED_EDGE('',*,*,#314,.F.);
#402=ORIENTED_EDGE('',*,*,#315,.T.);
#403=ORIENTED_EDGE('',*,*,#316,.F.);
#404=ORIENTED_EDGE('',*,*,#315,.F.);
#405=ORIENTED_EDGE('',*,*,#317,.F.);
#406=ORIENTED_EDGE('',*,*,#318,.T.);
#407=ORIENTED_EDGE('',*,*,#319,.F.);
#408=ORIENTED_EDGE('',*,*,#318,.F.);
#409=ORIENTED_EDGE('',*,*,#320,.F.);
#410=ORIENTED_EDGE('',*,*,#321,.T.);
#411=ORIENTED_EDGE('',*,*,#322,.F.);
#412=ORIENTED_EDGE('',*,*,#321,.F.);
#413=ORIENTED_EDGE('',*,*,#323,.F.);
#414=ORIENTED_EDGE('',*,*,#313,.T.);
#415=ORIENTED_EDGE('',*,*,#324,.F.);
#416=ORIENTED_EDGE('',*,*,#325,.F.);
#417=ORIENTED_EDGE('',*,*,#326,.F.);
#418=ORIENTED_EDGE('',*,*,#327,.T.);
#419=ORIENTED_EDGE('',*,*,#328,.F.);
#420=ORIENTED_EDGE('',*,*,#327,.F.);
#421=ORIENTED_EDGE('',*,*,#329,.F.);
#422=ORIENTED_EDGE('',*,*,#330,.T.);
#423=ORIENTED_EDGE('',*,*,#331,.F.);
#424=ORIENTED_EDGE('',*,*,#330,.F.);
#425=ORIENTED_EDGE('',*,*,#332,.F.);
#426=ORIENTED_EDGE('',*,*,#333,.T.);
#427=ORIENTED_EDGE('',*,*,#334,.F.);
#428=ORIENTED_EDGE('',*,*,#333,.F.);
#429=ORIENTED_EDGE('',*,*,#335,.F.);
#430=ORIENTED_EDGE('',*,*,#325,.T.);
#431=ORIENTED_EDGE('',*,*,#336,.F.);
#432=ORIENTED_EDGE('',*,*,#337,.T.);
#433=ORIENTED_EDGE('',*,*,#338,.F.);
#434=ORIENTED_EDGE('',*,*,#337,.F.);
#435=ORIENTED_EDGE('',*,*,#292,.F.);
#436=ORIENTED_EDGE('',*,*,#339,.T.);
#437=ORIENTED_EDGE('',*,*,#340,.T.);
#438=ORIENTED_EDGE('',*,*,#341,.F.);
#439=ORIENTED_EDGE('',*,*,#295,.F.);
#440=ORIENTED_EDGE('',*,*,#342,.T.);
#441=ORIENTED_EDGE('',*,*,#343,.T.);
#442=ORIENTED_EDGE('',*,*,#339,.F.);
#443=ORIENTED_EDGE('',*,*,#319,.T.);
#444=ORIENTED_EDGE('',*,*,#322,.T.);
#445=ORIENTED_EDGE('',*,*,#312,.T.);
#446=ORIENTED_EDGE('',*,*,#316,.T.);
#447=ORIENTED_EDGE('',*,*,#331,.T.);
#448=ORIENTED_EDGE('',*,*,#334,.T.);
#449=ORIENTED_EDGE('',*,*,#324,.T.);
#450=ORIENTED_EDGE('',*,*,#328,.T.);
#451=ORIENTED_EDGE('',*,*,#338,.T.);
#452=ORIENTED_EDGE('',*,*,#294,.F.);
#453=ORIENTED_EDGE('',*,*,#344,.T.);
#454=ORIENTED_EDGE('',*,*,#345,.T.);
#455=ORIENTED_EDGE('',*,*,#342,.F.);
#456=ORIENTED_EDGE('',*,*,#293,.F.);
#457=ORIENTED_EDGE('',*,*,#341,.T.);
#458=ORIENTED_EDGE('',*,*,#346,.T.);
#459=ORIENTED_EDGE('',*,*,#344,.F.);
#460=ORIENTED_EDGE('',*,*,#346,.F.);
#461=ORIENTED_EDGE('',*,*,#340,.F.);
#462=ORIENTED_EDGE('',*,*,#343,.F.);
#463=ORIENTED_EDGE('',*,*,#345,.F.);
#464=ORIENTED_EDGE('',*,*,#347,.F.);
#465=ORIENTED_EDGE('',*,*,#348,.F.);
#466=ORIENTED_EDGE('',*,*,#349,.F.);
#467=ORIENTED_EDGE('',*,*,#350,.F.);
#468=ORIENTED_EDGE('',*,*,#349,.T.);
#469=ORIENTED_EDGE('',*,*,#351,.F.);
#470=ORIENTED_EDGE('',*,*,#352,.F.);
#471=ORIENTED_EDGE('',*,*,#353,.T.);
#472=ORIENTED_EDGE('',*,*,#348,.T.);
#473=ORIENTED_EDGE('',*,*,#354,.F.);
#474=ORIENTED_EDGE('',*,*,#355,.F.);
#475=ORIENTED_EDGE('',*,*,#351,.T.);
#476=ORIENTED_EDGE('',*,*,#347,.T.);
#477=ORIENTED_EDGE('',*,*,#356,.F.);
#478=ORIENTED_EDGE('',*,*,#357,.F.);
#479=ORIENTED_EDGE('',*,*,#354,.T.);
#480=ORIENTED_EDGE('',*,*,#350,.T.);
#481=ORIENTED_EDGE('',*,*,#353,.F.);
#482=ORIENTED_EDGE('',*,*,#358,.F.);
#483=ORIENTED_EDGE('',*,*,#356,.T.);
#484=ORIENTED_EDGE('',*,*,#359,.F.);
#485=ORIENTED_EDGE('',*,*,#360,.T.);
#486=ORIENTED_EDGE('',*,*,#309,.F.);
#487=ORIENTED_EDGE('',*,*,#361,.F.);
#488=ORIENTED_EDGE('',*,*,#362,.F.);
#489=ORIENTED_EDGE('',*,*,#361,.T.);
#490=ORIENTED_EDGE('',*,*,#308,.F.);
#491=ORIENTED_EDGE('',*,*,#363,.F.);
#492=ORIENTED_EDGE('',*,*,#364,.F.);
#493=ORIENTED_EDGE('',*,*,#363,.T.);
#494=ORIENTED_EDGE('',*,*,#311,.F.);
#495=ORIENTED_EDGE('',*,*,#365,.F.);
#496=ORIENTED_EDGE('',*,*,#366,.F.);
#497=ORIENTED_EDGE('',*,*,#365,.T.);
#498=ORIENTED_EDGE('',*,*,#310,.F.);
#499=ORIENTED_EDGE('',*,*,#360,.F.);
#500=ORIENTED_EDGE('',*,*,#320,.T.);
#501=ORIENTED_EDGE('',*,*,#317,.T.);
#502=ORIENTED_EDGE('',*,*,#314,.T.);
#503=ORIENTED_EDGE('',*,*,#323,.T.);
#504=ORIENTED_EDGE('',*,*,#332,.T.);
#505=ORIENTED_EDGE('',*,*,#329,.T.);
#506=ORIENTED_EDGE('',*,*,#326,.T.);
#507=ORIENTED_EDGE('',*,*,#335,.T.);
#508=ORIENTED_EDGE('',*,*,#336,.T.);
#509=ORIENTED_EDGE('',*,*,#366,.T.);
#510=ORIENTED_EDGE('',*,*,#359,.T.);
#511=ORIENTED_EDGE('',*,*,#362,.T.);
#512=ORIENTED_EDGE('',*,*,#364,.T.);
#513=ORIENTED_EDGE('',*,*,#357,.T.);
#514=ORIENTED_EDGE('',*,*,#358,.T.);
#515=ORIENTED_EDGE('',*,*,#352,.T.);
#516=ORIENTED_EDGE('',*,*,#355,.T.);
#517=PLANE('',#588);
#518=PLANE('',#589);
#519=PLANE('',#590);
#520=PLANE('',#591);
#521=PLANE('',#592);
#522=PLANE('',#593);
#523=PLANE('',#594);
#524=PLANE('',#595);
#525=PLANE('',#596);
#526=PLANE('',#597);
#527=PLANE('',#598);
#528=PLANE('',#599);
#529=PLANE('',#600);
#530=PLANE('',#601);
#531=PLANE('',#605);
#532=PLANE('',#606);
#533=PLANE('',#607);
#534=PLANE('',#608);
#535=PLANE('',#609);
#536=PLANE('',#610);
#537=PLANE('',#611);
#538=PLANE('',#612);
#539=PLANE('',#613);
#540=PLANE('',#614);
#541=PLANE('',#615);
#542=PLANE('',#616);
#543=PLANE('',#617);
#544=PLANE('',#618);
#545=ADVANCED_FACE('',(#28,#18),#517,.F.);
#546=ADVANCED_FACE('',(#29),#518,.T.);
#547=ADVANCED_FACE('',(#30),#519,.T.);
#548=ADVANCED_FACE('',(#31),#520,.T.);
#549=ADVANCED_FACE('',(#32),#521,.T.);
#550=ADVANCED_FACE('',(#33,#19),#522,.T.);
#551=ADVANCED_FACE('',(#34),#523,.F.);
#552=ADVANCED_FACE('',(#35),#524,.F.);
#553=ADVANCED_FACE('',(#36),#525,.F.);
#554=ADVANCED_FACE('',(#37),#526,.F.);
#555=ADVANCED_FACE('',(#38),#527,.F.);
#556=ADVANCED_FACE('',(#39),#528,.F.);
#557=ADVANCED_FACE('',(#40),#529,.F.);
#558=ADVANCED_FACE('',(#41),#530,.F.);
#559=ADVANCED_FACE('',(#42),#17,.F.);
#560=ADVANCED_FACE('',(#43),#531,.F.);
#561=ADVANCED_FACE('',(#44,#20,#21,#22),#532,.F.);
#562=ADVANCED_FACE('',(#45),#533,.F.);
#563=ADVANCED_FACE('',(#46),#534,.F.);
#564=ADVANCED_FACE('',(#47,#23),#535,.F.);
#565=ADVANCED_FACE('',(#48),#536,.F.);
#566=ADVANCED_FACE('',(#49),#537,.F.);
#567=ADVANCED_FACE('',(#50),#538,.F.);
#568=ADVANCED_FACE('',(#51),#539,.F.);
#569=ADVANCED_FACE('',(#52),#540,.T.);
#570=ADVANCED_FACE('',(#53),#541,.T.);
#571=ADVANCED_FACE('',(#54),#542,.T.);
#572=ADVANCED_FACE('',(#55,#24,#25,#26),#543,.T.);
#573=ADVANCED_FACE('',(#56,#27),#544,.F.);
#574=CLOSED_SHELL('',(#545,#546,#547,#548,#549,#550,#551,#552,#553,#554,
#555,#556,#557,#558,#559,#560,#561,#562,#563,#564,#565,#566,#567,#568,#569,
#570,#571,#572,#573));
#575=DERIVED_UNIT_ELEMENT(#577,1.);
#576=DERIVED_UNIT_ELEMENT(#916,-3.);
#577=(
MASS_UNIT()
NAMED_UNIT(*)
SI_UNIT(.KILO.,.GRAM.)
);
#578=DERIVED_UNIT((#575,#576));
#579=MEASURE_REPRESENTATION_ITEM('density measure',
POSITIVE_RATIO_MEASURE(7850.),#578);
#580=PROPERTY_DEFINITION_REPRESENTATION(#585,#582);
#581=PROPERTY_DEFINITION_REPRESENTATION(#586,#583);
#582=REPRESENTATION('material name',(#584),#913);
#583=REPRESENTATION('density',(#579),#913);
#584=DESCRIPTIVE_REPRESENTATION_ITEM('Steel','Steel');
#585=PROPERTY_DEFINITION('material property','material name',#923);
#586=PROPERTY_DEFINITION('material property','density of part',#923);
#587=AXIS2_PLACEMENT_3D('',#756,#619,#620);
#588=AXIS2_PLACEMENT_3D('',#757,#621,#622);
#589=AXIS2_PLACEMENT_3D('',#774,#631,#632);
#590=AXIS2_PLACEMENT_3D('',#780,#636,#637);
#591=AXIS2_PLACEMENT_3D('',#784,#640,#641);
#592=AXIS2_PLACEMENT_3D('',#788,#644,#645);
#593=AXIS2_PLACEMENT_3D('',#790,#647,#648);
#594=AXIS2_PLACEMENT_3D('',#799,#653,#654);
#595=AXIS2_PLACEMENT_3D('',#808,#659,#660);
#596=AXIS2_PLACEMENT_3D('',#814,#664,#665);
#597=AXIS2_PLACEMENT_3D('',#820,#669,#670);
#598=AXIS2_PLACEMENT_3D('',#823,#673,#674);
#599=AXIS2_PLACEMENT_3D('',#832,#679,#680);
#600=AXIS2_PLACEMENT_3D('',#838,#684,#685);
#601=AXIS2_PLACEMENT_3D('',#844,#689,#690);
#602=AXIS2_PLACEMENT_3D('',#847,#693,#694);
#603=AXIS2_PLACEMENT_3D('',#849,#695,#696);
#604=AXIS2_PLACEMENT_3D('',#852,#698,#699);
#605=AXIS2_PLACEMENT_3D('',#853,#700,#701);
#606=AXIS2_PLACEMENT_3D('',#859,#705,#706);
#607=AXIS2_PLACEMENT_3D('',#863,#709,#710);
#608=AXIS2_PLACEMENT_3D('',#867,#713,#714);
#609=AXIS2_PLACEMENT_3D('',#869,#716,#717);
#610=AXIS2_PLACEMENT_3D('',#878,#722,#723);
#611=AXIS2_PLACEMENT_3D('',#884,#727,#728);
#612=AXIS2_PLACEMENT_3D('',#888,#731,#732);
#613=AXIS2_PLACEMENT_3D('',#892,#735,#736);
#614=AXIS2_PLACEMENT_3D('',#894,#738,#739);
#615=AXIS2_PLACEMENT_3D('',#900,#743,#744);
#616=AXIS2_PLACEMENT_3D('',#904,#747,#748);
#617=AXIS2_PLACEMENT_3D('',#908,#751,#752);
#618=AXIS2_PLACEMENT_3D('',#910,#754,#755);
#619=DIRECTION('axis',(0.,0.,1.));
#620=DIRECTION('refdir',(1.,0.,0.));
#621=DIRECTION('center_axis',(0.,1.,0.));
#622=DIRECTION('ref_axis',(1.,0.,0.));
#623=DIRECTION('',(0.,0.,-1.));
#624=DIRECTION('',(1.,0.,0.));
#625=DIRECTION('',(0.,0.,1.));
#626=DIRECTION('',(-1.,0.,0.));
#627=DIRECTION('',(1.,0.,0.));
#628=DIRECTION('',(0.,0.,-1.));
#629=DIRECTION('',(-1.,0.,0.));
#630=DIRECTION('',(0.,0.,1.));
#631=DIRECTION('center_axis',(1.,0.,0.));
#632=DIRECTION('ref_axis',(0.,0.,-1.));
#633=DIRECTION('',(0.,1.,0.));
#634=DIRECTION('',(0.,0.,-1.));
#635=DIRECTION('',(0.,1.,0.));
#636=DIRECTION('center_axis',(0.,0.,-1.));
#637=DIRECTION('ref_axis',(-1.,0.,0.));
#638=DIRECTION('',(-1.,0.,0.));
#639=DIRECTION('',(0.,1.,0.));
#640=DIRECTION('center_axis',(-1.,0.,0.));
#641=DIRECTION('ref_axis',(0.,0.,1.));
#642=DIRECTION('',(0.,0.,1.));
#643=DIRECTION('',(0.,1.,0.));
#644=DIRECTION('center_axis',(0.,0.,1.));
#645=DIRECTION('ref_axis',(1.,0.,0.));
#646=DIRECTION('',(1.,0.,0.));
#647=DIRECTION('center_axis',(0.,1.,0.));
#648=DIRECTION('ref_axis',(0.,0.,1.));
#649=DIRECTION('',(-1.,0.,0.));
#650=DIRECTION('',(0.,0.,1.));
#651=DIRECTION('',(1.,0.,0.));
#652=DIRECTION('',(0.,0.,-1.));
#653=DIRECTION('center_axis',(1.,0.,0.));
#654=DIRECTION('ref_axis',(0.,-1.,0.));
#655=DIRECTION('',(0.,1.,0.));
#656=DIRECTION('',(0.,0.,-1.));
#657=DIRECTION('',(0.,-1.,0.));
#658=DIRECTION('',(0.,0.,-1.));
#659=DIRECTION('center_axis',(0.,1.,0.));
#660=DIRECTION('ref_axis',(1.,0.,0.));
#661=DIRECTION('',(-1.,0.,0.));
#662=DIRECTION('',(1.,0.,0.));
#663=DIRECTION('',(0.,0.,-1.));
#664=DIRECTION('center_axis',(-1.,0.,0.));
#665=DIRECTION('ref_axis',(0.,1.,0.));
#666=DIRECTION('',(0.,-1.,0.));
#667=DIRECTION('',(0.,1.,0.));
#668=DIRECTION('',(0.,0.,-1.));
#669=DIRECTION('center_axis',(0.,-1.,0.));
#670=DIRECTION('ref_axis',(-1.,0.,0.));
#671=DIRECTION('',(1.,0.,0.));
#672=DIRECTION('',(-1.,0.,0.));
#673=DIRECTION('center_axis',(-1.,0.,0.));
#674=DIRECTION('ref_axis',(0.,1.,0.));
#675=DIRECTION('',(0.,-1.,0.));
#676=DIRECTION('',(0.,0.,-1.));
#677=DIRECTION('',(0.,1.,0.));
#678=DIRECTION('',(0.,0.,-1.));
#679=DIRECTION('center_axis',(0.,-1.,0.));
#680=DIRECTION('ref_axis',(-1.,0.,0.));
#681=DIRECTION('',(1.,0.,0.));
#682=DIRECTION('',(-1.,0.,0.));
#683=DIRECTION('',(0.,0.,-1.));
#684=DIRECTION('center_axis',(1.,0.,0.));
#685=DIRECTION('ref_axis',(0.,-1.,0.));
#686=DIRECTION('',(0.,1.,0.));
#687=DIRECTION('',(0.,-1.,0.));
#688=DIRECTION('',(0.,0.,-1.));
#689=DIRECTION('center_axis',(0.,1.,0.));
#690=DIRECTION('ref_axis',(1.,0.,0.));
#691=DIRECTION('',(-1.,0.,0.));
#692=DIRECTION('',(1.,0.,0.));
#693=DIRECTION('center_axis',(0.,0.,-1.));
#694=DIRECTION('ref_axis',(-1.,0.,0.));
#695=DIRECTION('center_axis',(0.,0.,-1.));
#696=DIRECTION('ref_axis',(-1.,0.,0.));
#697=DIRECTION('',(0.,0.,-1.));
#698=DIRECTION('center_axis',(0.,0.,1.));
#699=DIRECTION('ref_axis',(-1.,0.,0.));
#700=DIRECTION('center_axis',(-1.,0.,0.));
#701=DIRECTION('ref_axis',(0.,0.,-1.));
#702=DIRECTION('',(0.,-1.,0.));
#703=DIRECTION('',(0.,0.,-1.));
#704=DIRECTION('',(0.,-1.,0.));
#705=DIRECTION('center_axis',(0.,0.,1.));
#706=DIRECTION('ref_axis',(-1.,0.,0.));
#707=DIRECTION('',(0.,-1.,0.));
#708=DIRECTION('',(-1.,0.,0.));
#709=DIRECTION('center_axis',(1.,0.,0.));
#710=DIRECTION('ref_axis',(0.,0.,1.));
#711=DIRECTION('',(0.,-1.,0.));
#712=DIRECTION('',(0.,0.,1.));
#713=DIRECTION('center_axis',(0.,0.,-1.));
#714=DIRECTION('ref_axis',(1.,0.,0.));
#715=DIRECTION('',(1.,0.,0.));
#716=DIRECTION('center_axis',(0.,-1.,0.));
#717=DIRECTION('ref_axis',(0.,0.,-1.));
#718=DIRECTION('',(0.,0.,-1.));
#719=DIRECTION('',(1.,0.,0.));
#720=DIRECTION('',(0.,0.,1.));
#721=DIRECTION('',(-1.,0.,0.));
#722=DIRECTION('center_axis',(-1.,0.,0.));
#723=DIRECTION('ref_axis',(0.,0.,1.));
#724=DIRECTION('',(0.,1.,0.));
#725=DIRECTION('',(0.,0.,1.));
#726=DIRECTION('',(0.,1.,0.));
#727=DIRECTION('center_axis',(0.,0.,1.));
#728=DIRECTION('ref_axis',(1.,0.,0.));
#729=DIRECTION('',(0.,1.,0.));
#730=DIRECTION('',(1.,0.,0.));
#731=DIRECTION('center_axis',(1.,0.,0.));
#732=DIRECTION('ref_axis',(0.,0.,-1.));
#733=DIRECTION('',(0.,1.,0.));
#734=DIRECTION('',(0.,0.,-1.));
#735=DIRECTION('center_axis',(0.,0.,-1.));
#736=DIRECTION('ref_axis',(-1.,0.,0.));
#737=DIRECTION('',(-1.,0.,0.));
#738=DIRECTION('center_axis',(-1.,0.,0.));
#739=DIRECTION('ref_axis',(0.,0.,1.));
#740=DIRECTION('',(0.,0.,-1.));
#741=DIRECTION('',(0.,1.,0.));
#742=DIRECTION('',(0.,1.,0.));
#743=DIRECTION('center_axis',(0.,0.,-1.));
#744=DIRECTION('ref_axis',(-1.,0.,0.));
#745=DIRECTION('',(1.,0.,0.));
#746=DIRECTION('',(0.,1.,0.));
#747=DIRECTION('center_axis',(1.,0.,0.));
#748=DIRECTION('ref_axis',(0.,0.,-1.));
#749=DIRECTION('',(0.,0.,1.));
#750=DIRECTION('',(0.,1.,0.));
#751=DIRECTION('center_axis',(0.,0.,1.));
#752=DIRECTION('ref_axis',(1.,0.,0.));
#753=DIRECTION('',(-1.,0.,0.));
#754=DIRECTION('center_axis',(0.,1.,0.));
#755=DIRECTION('ref_axis',(1.,0.,0.));
#756=CARTESIAN_POINT('',(0.,0.,0.));
#757=CARTESIAN_POINT('Origin',(0.,70.,20.0000002980232));
#758=CARTESIAN_POINT('',(-24.0000003576279,70.,39.0000005811453));
#759=CARTESIAN_POINT('',(-24.0000003576279,70.,1.00000001490116));
#760=CARTESIAN_POINT('',(-24.0000003576279,70.,29.5000004395843));
#761=CARTESIAN_POINT('',(24.0000003576279,70.,1.00000001490116));
#762=CARTESIAN_POINT('',(-12.0000001788139,70.,1.00000001490116));
#763=CARTESIAN_POINT('',(24.0000003576279,70.,39.0000005811453));
#764=CARTESIAN_POINT('',(24.0000003576279,70.,10.5000001564622));
#765=CARTESIAN_POINT('',(12.0000001788139,70.,39.0000005811453));
#766=CARTESIAN_POINT('',(19.8999995552003,70.,15.6999996490777));
#767=CARTESIAN_POINT('',(22.4999994970858,70.,15.6999996490777));
#768=CARTESIAN_POINT('',(19.8999995552003,70.,15.6999996490777));
#769=CARTESIAN_POINT('',(19.8999995552003,70.,24.2499994579703));
#770=CARTESIAN_POINT('',(19.8999995552003,70.,24.2499994579703));
#771=CARTESIAN_POINT('',(22.4999994970858,70.,24.2499994579703));
#772=CARTESIAN_POINT('',(22.4999994970858,70.,24.2499994579703));
#773=CARTESIAN_POINT('',(22.4999994970858,70.,15.6999996490777));
#774=CARTESIAN_POINT('Origin',(19.8999995552003,70.,24.2499994579703));
#775=CARTESIAN_POINT('',(19.8999995552003,72.,15.6999996490777));
#776=CARTESIAN_POINT('',(19.8999995552003,70.,15.6999996490777));
#777=CARTESIAN_POINT('',(19.8999995552003,72.,24.2499994579703));
#778=CARTESIAN_POINT('',(19.8999995552003,72.,24.2499994579703));
#779=CARTESIAN_POINT('',(19.8999995552003,70.,24.2499994579703));
#780=CARTESIAN_POINT('Origin',(22.4999994970858,70.,24.2499994579703));
#781=CARTESIAN_POINT('',(22.4999994970858,72.,24.2499994579703));
#782=CARTESIAN_POINT('',(22.4999994970858,72.,24.2499994579703));
#783=CARTESIAN_POINT('',(22.4999994970858,70.,24.2499994579703));
#784=CARTESIAN_POINT('Origin',(22.4999994970858,70.,15.6999996490777));
#785=CARTESIAN_POINT('',(22.4999994970858,72.,15.6999996490777));
#786=CARTESIAN_POINT('',(22.4999994970858,72.,15.6999996490777));
#787=CARTESIAN_POINT('',(22.4999994970858,70.,15.6999996490777));
#788=CARTESIAN_POINT('Origin',(19.8999995552003,70.,15.6999996490777));
#789=CARTESIAN_POINT('',(19.8999995552003,72.,15.6999996490777));
#790=CARTESIAN_POINT('Origin',(0.,72.,20.0000002980232));
#791=CARTESIAN_POINT('',(25.000000372529,72.,0.));
#792=CARTESIAN_POINT('',(-25.000000372529,72.,0.));
#793=CARTESIAN_POINT('',(-25.000000372529,72.,0.));
#794=CARTESIAN_POINT('',(-25.000000372529,72.,40.0000005960464));
#795=CARTESIAN_POINT('',(-25.000000372529,72.,40.0000005960464));
#796=CARTESIAN_POINT('',(25.000000372529,72.,40.0000005960464));
#797=CARTESIAN_POINT('',(25.000000372529,72.,40.0000005960464));
#798=CARTESIAN_POINT('',(25.000000372529,72.,0.));
#799=CARTESIAN_POINT('Origin',(21.5999995172024,60.9999986365438,40.0000005960464));
#800=CARTESIAN_POINT('',(21.5999995172024,45.2999989874661,39.0000005811453));
#801=CARTESIAN_POINT('',(21.5999995172024,60.9999986365438,39.0000005811453));
#802=CARTESIAN_POINT('',(21.5999995172024,65.4999993182719,39.0000005811453));
#803=CARTESIAN_POINT('',(21.5999995172024,45.2999989874661,40.0000005960464));
#804=CARTESIAN_POINT('',(21.5999995172024,45.2999989874661,40.0000005960464));
#805=CARTESIAN_POINT('',(21.5999995172024,60.9999986365438,40.0000005960464));
#806=CARTESIAN_POINT('',(21.5999995172024,30.4999993182719,40.0000005960464));
#807=CARTESIAN_POINT('',(21.5999995172024,60.9999986365438,40.0000005960464));
#808=CARTESIAN_POINT('Origin',(9.39999978989363,60.9999986365438,40.0000005960464));
#809=CARTESIAN_POINT('',(9.39999978989363,60.9999986365438,39.0000005811453));
#810=CARTESIAN_POINT('',(16.7000000737607,60.9999986365438,39.0000005811453));
#811=CARTESIAN_POINT('',(9.39999978989363,60.9999986365438,40.0000005960464));
#812=CARTESIAN_POINT('',(-7.8000002913177,60.9999986365438,40.0000005960464));
#813=CARTESIAN_POINT('',(9.39999978989363,60.9999986365438,40.0000005960464));
#814=CARTESIAN_POINT('Origin',(9.39999978989363,45.2999989874661,40.0000005960464));
#815=CARTESIAN_POINT('',(9.39999978989363,45.2999989874661,39.0000005811453));
#816=CARTESIAN_POINT('',(9.39999978989363,57.649999493733,39.0000005811453));
#817=CARTESIAN_POINT('',(9.39999978989363,45.2999989874661,40.0000005960464));
#818=CARTESIAN_POINT('',(9.39999978989363,22.649999493733,40.0000005960464));
#819=CARTESIAN_POINT('',(9.39999978989363,45.2999989874661,40.0000005960464));
#820=CARTESIAN_POINT('Origin',(21.5999995172024,45.2999989874661,40.0000005960464));
#821=CARTESIAN_POINT('',(22.7999999374151,45.2999989874661,39.0000005811453));
#822=CARTESIAN_POINT('',(-1.70000042766333,45.2999989874661,40.0000005960464));
#823=CARTESIAN_POINT('Origin',(11.1999997496605,10.9999997541308,40.0000005960464));
#824=CARTESIAN_POINT('',(11.1999997496605,13.5999996960163,39.0000005811453));
#825=CARTESIAN_POINT('',(11.1999997496605,10.9999997541308,39.0000005811453));
#826=CARTESIAN_POINT('',(11.1999997496605,40.4999998770654,39.0000005811453));
#827=CARTESIAN_POINT('',(11.1999997496605,13.5999996960163,40.0000005960464));
#828=CARTESIAN_POINT('',(11.1999997496605,13.5999996960163,40.0000005960464));
#829=CARTESIAN_POINT('',(11.1999997496605,10.9999997541308,40.0000005960464));
#830=CARTESIAN_POINT('',(11.1999997496605,5.49999987706542,40.0000005960464));
#831=CARTESIAN_POINT('',(11.1999997496605,10.9999997541308,40.0000005960464));
#832=CARTESIAN_POINT('Origin',(13.799999691546,10.9999997541308,40.0000005960464));
#833=CARTESIAN_POINT('',(13.799999691546,10.9999997541308,39.0000005811453));
#834=CARTESIAN_POINT('',(18.9000000245869,10.9999997541308,39.0000005811453));
#835=CARTESIAN_POINT('',(13.799999691546,10.9999997541308,40.0000005960464));
#836=CARTESIAN_POINT('',(-5.60000034049153,10.9999997541308,40.0000005960464));
#837=CARTESIAN_POINT('',(13.799999691546,10.9999997541308,40.0000005960464));
#838=CARTESIAN_POINT('Origin',(13.799999691546,13.5999996960163,40.0000005960464));
#839=CARTESIAN_POINT('',(13.799999691546,13.5999996960163,39.0000005811453));
#840=CARTESIAN_POINT('',(13.799999691546,41.7999998480082,39.0000005811453));
#841=CARTESIAN_POINT('',(13.799999691546,13.5999996960163,40.0000005960464));
#842=CARTESIAN_POINT('',(13.799999691546,6.79999984800816,40.0000005960464));
#843=CARTESIAN_POINT('',(13.799999691546,13.5999996960163,40.0000005960464));
#844=CARTESIAN_POINT('Origin',(11.1999997496605,13.5999996960163,40.0000005960464));
#845=CARTESIAN_POINT('',(17.6000000536442,13.5999996960163,39.0000005811453));
#846=CARTESIAN_POINT('',(-6.90000031143427,13.5999996960163,40.0000005960464));
#847=CARTESIAN_POINT('Origin',(-2.5000000372529,46.500000692904,40.0000005960464));
#848=CARTESIAN_POINT('',(7.52247475491483,46.500000692904,40.0000005960464));
#849=CARTESIAN_POINT('Origin',(-2.5000000372529,46.500000692904,40.0000005960464));
#850=CARTESIAN_POINT('',(7.52247475491483,46.500000692904,39.0000005811453));
#851=CARTESIAN_POINT('',(7.52247475491483,46.500000692904,40.0000005960464));
#852=CARTESIAN_POINT('Origin',(-2.5000000372529,46.500000692904,39.0000005811453));
#853=CARTESIAN_POINT('Origin',(-24.0000003576279,70.,39.0000005811453));
#854=CARTESIAN_POINT('',(-24.0000003576279,1.99999999999999,39.0000005811453));
#855=CARTESIAN_POINT('',(-24.0000003576279,70.,39.0000005811453));
#856=CARTESIAN_POINT('',(-24.0000003576279,1.99999999999999,1.00000001490116));
#857=CARTESIAN_POINT('',(-24.0000003576279,1.99999999999999,39.0000005811453));
#858=CARTESIAN_POINT('',(-24.0000003576279,70.,1.00000001490116));
#859=CARTESIAN_POINT('Origin',(24.0000003576279,70.,39.0000005811453));
#860=CARTESIAN_POINT('',(24.0000003576279,1.99999999999999,39.0000005811453));
#861=CARTESIAN_POINT('',(24.0000003576279,70.,39.0000005811453));
#862=CARTESIAN_POINT('',(24.0000003576279,1.99999999999999,39.0000005811453));
#863=CARTESIAN_POINT('Origin',(24.0000003576279,70.,1.00000001490116));
#864=CARTESIAN_POINT('',(24.0000003576279,1.99999999999999,1.00000001490116));
#865=CARTESIAN_POINT('',(24.0000003576279,70.,1.00000001490116));
#866=CARTESIAN_POINT('',(24.0000003576279,1.99999999999999,1.00000001490116));
#867=CARTESIAN_POINT('Origin',(-24.0000003576279,70.,1.00000001490116));
#868=CARTESIAN_POINT('',(-24.0000003576279,1.99999999999999,1.00000001490116));
#869=CARTESIAN_POINT('Origin',(0.,1.99999999999999,20.0000002980232));
#870=CARTESIAN_POINT('',(13.3999997004867,1.99999999999999,29.6999993361533));
#871=CARTESIAN_POINT('',(13.3999997004867,1.99999999999999,10.2999997697771));
#872=CARTESIAN_POINT('',(13.3999997004867,1.99999999999999,24.8499998170882));
#873=CARTESIAN_POINT('',(-13.3999997004867,1.99999999999999,29.6999993361533));
#874=CARTESIAN_POINT('',(-6.69999985024333,1.99999999999999,29.6999993361533));
#875=CARTESIAN_POINT('',(-13.3999997004867,1.99999999999999,10.2999997697771));
#876=CARTESIAN_POINT('',(-13.3999997004867,1.99999999999999,15.1500000339001));
#877=CARTESIAN_POINT('',(6.69999985024333,1.99999999999999,10.2999997697771));
#878=CARTESIAN_POINT('Origin',(-13.3999997004867,0.,10.2999997697771));
#879=CARTESIAN_POINT('',(-13.3999997004867,0.,29.6999993361533));
#880=CARTESIAN_POINT('',(-13.3999997004867,0.,29.6999993361533));
#881=CARTESIAN_POINT('',(-13.3999997004867,0.,10.2999997697771));
#882=CARTESIAN_POINT('',(-13.3999997004867,0.,15.1500000339001));
#883=CARTESIAN_POINT('',(-13.3999997004867,0.,10.2999997697771));
#884=CARTESIAN_POINT('Origin',(-13.3999997004867,0.,29.6999993361533));
#885=CARTESIAN_POINT('',(13.3999997004867,0.,29.6999993361533));
#886=CARTESIAN_POINT('',(13.3999997004867,0.,29.6999993361533));
#887=CARTESIAN_POINT('',(-6.69999985024333,0.,29.6999993361533));
#888=CARTESIAN_POINT('Origin',(13.3999997004867,0.,29.6999993361533));
#889=CARTESIAN_POINT('',(13.3999997004867,0.,10.2999997697771));
#890=CARTESIAN_POINT('',(13.3999997004867,0.,10.2999997697771));
#891=CARTESIAN_POINT('',(13.3999997004867,0.,24.8499998170882));
#892=CARTESIAN_POINT('Origin',(13.3999997004867,0.,10.2999997697771));
#893=CARTESIAN_POINT('',(6.69999985024333,0.,10.2999997697771));
#894=CARTESIAN_POINT('Origin',(-25.000000372529,0.,0.));
#895=CARTESIAN_POINT('',(-25.000000372529,0.,40.0000005960464));
#896=CARTESIAN_POINT('',(-25.000000372529,0.,0.));
#897=CARTESIAN_POINT('',(-25.000000372529,0.,40.0000005960464));
#898=CARTESIAN_POINT('',(-25.000000372529,0.,40.0000005960464));
#899=CARTESIAN_POINT('',(-25.000000372529,0.,0.));
#900=CARTESIAN_POINT('Origin',(25.000000372529,0.,0.));
#901=CARTESIAN_POINT('',(25.000000372529,0.,0.));
#902=CARTESIAN_POINT('',(-25.000000372529,0.,0.));
#903=CARTESIAN_POINT('',(25.000000372529,0.,0.));
#904=CARTESIAN_POINT('Origin',(25.000000372529,0.,40.0000005960464));
#905=CARTESIAN_POINT('',(25.000000372529,0.,40.0000005960464));
#906=CARTESIAN_POINT('',(25.000000372529,0.,0.));
#907=CARTESIAN_POINT('',(25.000000372529,0.,40.0000005960464));
#908=CARTESIAN_POINT('Origin',(-25.000000372529,0.,40.0000005960464));
#909=CARTESIAN_POINT('',(25.000000372529,0.,40.0000005960464));
#910=CARTESIAN_POINT('Origin',(0.,0.,20.0000002980232));
#911=UNCERTAINTY_MEASURE_WITH_UNIT(LENGTH_MEASURE(0.01),#915,
'DISTANCE_ACCURACY_VALUE',
'Maximum model space distance between geometric entities at asserted c
onnectivities');
#912=UNCERTAINTY_MEASURE_WITH_UNIT(LENGTH_MEASURE(0.01),#915,
'DISTANCE_ACCURACY_VALUE',
'Maximum model space distance between geometric entities at asserted c
onnectivities');
#913=(
GEOMETRIC_REPRESENTATION_CONTEXT(3)
GLOBAL_UNCERTAINTY_ASSIGNED_CONTEXT((#911))
GLOBAL_UNIT_ASSIGNED_CONTEXT((#915,#917,#918))
REPRESENTATION_CONTEXT('','3D')
);
#914=(
GEOMETRIC_REPRESENTATION_CONTEXT(3)
GLOBAL_UNCERTAINTY_ASSIGNED_CONTEXT((#912))
GLOBAL_UNIT_ASSIGNED_CONTEXT((#915,#917,#918))
REPRESENTATION_CONTEXT('','3D')
);
#915=(
LENGTH_UNIT()
NAMED_UNIT(*)
SI_UNIT(.MILLI.,.METRE.)
);
#916=(
LENGTH_UNIT()
NAMED_UNIT(*)
SI_UNIT($,.METRE.)
);
#917=(
NAMED_UNIT(*)
PLANE_ANGLE_UNIT()
SI_UNIT($,.RADIAN.)
);
#918=(
NAMED_UNIT(*)
SI_UNIT($,.STERADIAN.)
SOLID_ANGLE_UNIT()
);
#919=SHAPE_DEFINITION_REPRESENTATION(#920,#921);
#920=PRODUCT_DEFINITION_SHAPE('',$,#923);
#921=SHAPE_REPRESENTATION('',(#587),#913);
#922=PRODUCT_DEFINITION_CONTEXT('part definition',#927,'design');
#923=PRODUCT_DEFINITION('Print','Print v2',#924,#922);
#924=PRODUCT_DEFINITION_FORMATION('',$,#929);
#925=PRODUCT_RELATED_PRODUCT_CATEGORY('Print v2','Print v2',(#929));
#926=APPLICATION_PROTOCOL_DEFINITION('international standard',
'automotive_design',2009,#927);
#927=APPLICATION_CONTEXT(
'Core Data for Automotive Mechanical Design Process');
#928=PRODUCT_CONTEXT('part definition',#927,'mechanical');
#929=PRODUCT('Print','Print v2',$,(#928));
#930=PRESENTATION_STYLE_ASSIGNMENT((#931));
#931=SURFACE_STYLE_USAGE(.BOTH.,#932);
#932=SURFACE_SIDE_STYLE('',(#933));
#933=SURFACE_STYLE_FILL_AREA(#934);
#934=FILL_AREA_STYLE('Steel - Satin',(#935));
#935=FILL_AREA_STYLE_COLOUR('Steel - Satin',#936);
#936=COLOUR_RGB('Steel - Satin',0.627450980392157,0.627450980392157,0.627450980392157);
ENDSEC;
END-ISO-10303-21;
