solid exported
	facet normal 0 -1 0
		outer loop
			vertex 0.019899999722838402 0.07000000029802322 0.024249998852610588
			vertex 0.024000000208616257 0.07000000029802322 0.039000000804662704
			vertex -0.024000000208616257 0.07000000029802322 0.039000000804662704
		endloop
	endfacet
	facet normal 0 -1 0
		outer loop
			vertex 0.019899999722838402 0.07000000029802322 0.024249998852610588
			vertex -0.024000000208616257 0.07000000029802322 0.039000000804662704
			vertex -0.024000000208616257 0.07000000029802322 0.0010000000474974513
		endloop
	endfacet
	facet normal 0 -1 0
		outer loop
			vertex 0.022499999031424522 0.07000000029802322 0.024249998852610588
			vertex 0.024000000208616257 0.07000000029802322 0.039000000804662704
			vertex 0.019899999722838402 0.07000000029802322 0.024249998852610588
		endloop
	endfacet
	facet normal 0 -1 0
		outer loop
			vertex 0.019899999722838402 0.07000000029802322 0.015699999406933784
			vertex 0.019899999722838402 0.07000000029802322 0.024249998852610588
			vertex -0.024000000208616257 0.07000000029802322 0.0010000000474974513
		endloop
	endfacet
	facet normal 0 -1 0
		outer loop
			vertex 0.024000000208616257 0.07000000029802322 0.0010000000474974513
			vertex 0.022499999031424522 0.07000000029802322 0.015699999406933784
			vertex 0.019899999722838402 0.07000000029802322 0.015699999406933784
		endloop
	endfacet
	facet normal 0 -1 0
		outer loop
			vertex 0.024000000208616257 0.07000000029802322 0.0010000000474974513
			vertex 0.019899999722838402 0.07000000029802322 0.015699999406933784
			vertex -0.024000000208616257 0.07000000029802322 0.0010000000474974513
		endloop
	endfacet
	facet normal 0 -1 0
		outer loop
			vertex 0.024000000208616257 0.07000000029802322 0.039000000804662704
			vertex 0.022499999031424522 0.07000000029802322 0.015699999406933784
			vertex 0.024000000208616257 0.07000000029802322 0.0010000000474974513
		endloop
	endfacet
	facet normal 0 -1 0
		outer loop
			vertex 0.024000000208616257 0.07000000029802322 0.039000000804662704
			vertex 0.022499999031424522 0.07000000029802322 0.024249998852610588
			vertex 0.022499999031424522 0.07000000029802322 0.015699999406933784
		endloop
	endfacet
	facet normal 1 0 0
		outer loop
			vertex 0.019899999722838402 0.07199999690055847 0.015699999406933784
			vertex 0.019899999722838402 0.07000000029802322 0.024249998852610588
			vertex 0.019899999722838402 0.07000000029802322 0.015699999406933784
		endloop
	endfacet
	facet normal 1 0 0
		outer loop
			vertex 0.019899999722838402 0.07199999690055847 0.015699999406933784
			vertex 0.019899999722838402 0.07199999690055847 0.024249998852610588
			vertex 0.019899999722838402 0.07000000029802322 0.024249998852610588
		endloop
	endfacet
	facet normal 0 0 -1
		outer loop
			vertex 0.019899999722838402 0.07199999690055847 0.024249998852610588
			vertex 0.022499999031424522 0.07000000029802322 0.024249998852610588
			vertex 0.019899999722838402 0.07000000029802322 0.024249998852610588
		endloop
	endfacet
	facet normal 0 0 -1
		outer loop
			vertex 0.019899999722838402 0.07199999690055847 0.024249998852610588
			vertex 0.022499999031424522 0.07199999690055847 0.024249998852610588
			vertex 0.022499999031424522 0.07000000029802322 0.024249998852610588
		endloop
	endfacet
	facet normal -1 0 0
		outer loop
			vertex 0.022499999031424522 0.07199999690055847 0.024249998852610588
			vertex 0.022499999031424522 0.07000000029802322 0.015699999406933784
			vertex 0.022499999031424522 0.07000000029802322 0.024249998852610588
		endloop
	endfacet
	facet normal -1 0 0
		outer loop
			vertex 0.022499999031424522 0.07199999690055847 0.024249998852610588
			vertex 0.022499999031424522 0.07199999690055847 0.015699999406933784
			vertex 0.022499999031424522 0.07000000029802322 0.015699999406933784
		endloop
	endfacet
	facet normal 0 0 1
		outer loop
			vertex 0.022499999031424522 0.07199999690055847 0.015699999406933784
			vertex 0.019899999722838402 0.07000000029802322 0.015699999406933784
			vertex 0.022499999031424522 0.07000000029802322 0.015699999406933784
		endloop
	endfacet
	facet normal 0 0 1
		outer loop
			vertex 0.022499999031424522 0.07199999690055847 0.015699999406933784
			vertex 0.019899999722838402 0.07199999690055847 0.015699999406933784
			vertex 0.019899999722838402 0.07000000029802322 0.015699999406933784
		endloop
	endfacet
	facet normal 0 1 0
		outer loop
			vertex 0.019899999722838402 0.07199999690055847 0.015699999406933784
			vertex 0.02500000037252903 0.07199999690055847 0
			vertex -0.02500000037252903 0.07199999690055847 0
		endloop
	endfacet
	facet normal 0 1 0
		outer loop
			vertex 0.022499999031424522 0.07199999690055847 0.015699999406933784
			vertex 0.02500000037252903 0.07199999690055847 0
			vertex 0.019899999722838402 0.07199999690055847 0.015699999406933784
		endloop
	endfacet
	facet normal 0 1 0
		outer loop
			vertex 0.019899999722838402 0.07199999690055847 0.024249998852610588
			vertex -0.02500000037252903 0.07199999690055847 0
			vertex -0.02500000037252903 0.07199999690055847 0.03999999910593033
		endloop
	endfacet
	facet normal 0 1 0
		outer loop
			vertex 0.019899999722838402 0.07199999690055847 0.024249998852610588
			vertex 0.019899999722838402 0.07199999690055847 0.015699999406933784
			vertex -0.02500000037252903 0.07199999690055847 0
		endloop
	endfacet
	facet normal 0 1 0
		outer loop
			vertex 0.02500000037252903 0.07199999690055847 0.03999999910593033
			vertex 0.022499999031424522 0.07199999690055847 0.024249998852610588
			vertex 0.019899999722838402 0.07199999690055847 0.024249998852610588
		endloop
	endfacet
	facet normal 0 1 0
		outer loop
			vertex 0.02500000037252903 0.07199999690055847 0.03999999910593033
			vertex 0.019899999722838402 0.07199999690055847 0.024249998852610588
			vertex -0.02500000037252903 0.07199999690055847 0.03999999910593033
		endloop
	endfacet
	facet normal 0 1 0
		outer loop
			vertex 0.02500000037252903 0.07199999690055847 0.03999999910593033
			vertex 0.02500000037252903 0.07199999690055847 0
			vertex 0.022499999031424522 0.07199999690055847 0.015699999406933784
		endloop
	endfacet
	facet normal 0 1 0
		outer loop
			vertex 0.02500000037252903 0.07199999690055847 0.03999999910593033
			vertex 0.022499999031424522 0.07199999690055847 0.015699999406933784
			vertex 0.022499999031424522 0.07199999690055847 0.024249998852610588
		endloop
	endfacet
	facet normal -1 0 0
		outer loop
			vertex 0.02159999869763851 0.04529999941587448 0.039000000804662704
			vertex 0.02159999869763851 0.060999996960163116 0.03999999910593033
			vertex 0.02159999869763851 0.060999996960163116 0.039000000804662704
		endloop
	endfacet
	facet normal -1 0 0
		outer loop
			vertex 0.02159999869763851 0.04529999941587448 0.039000000804662704
			vertex 0.02159999869763851 0.04529999941587448 0.03999999910593033
			vertex 0.02159999869763851 0.060999996960163116 0.03999999910593033
		endloop
	endfacet
	facet normal 0 -1 0
		outer loop
			vertex 0.02159999869763851 0.060999996960163116 0.039000000804662704
			vertex 0.009399999864399433 0.060999996960163116 0.03999999910593033
			vertex 0.009399999864399433 0.060999996960163116 0.039000000804662704
		endloop
	endfacet
	facet normal 0 -1 0
		outer loop
			vertex 0.02159999869763851 0.060999996960163116 0.039000000804662704
			vertex 0.02159999869763851 0.060999996960163116 0.03999999910593033
			vertex 0.009399999864399433 0.060999996960163116 0.03999999910593033
		endloop
	endfacet
	facet normal 1 0 0
		outer loop
			vertex 0.009399999864399433 0.060999996960163116 0.039000000804662704
			vertex 0.009399999864399433 0.04529999941587448 0.03999999910593033
			vertex 0.009399999864399433 0.04529999941587448 0.039000000804662704
		endloop
	endfacet
	facet normal 1 0 0
		outer loop
			vertex 0.009399999864399433 0.060999996960163116 0.039000000804662704
			vertex 0.009399999864399433 0.060999996960163116 0.03999999910593033
			vertex 0.009399999864399433 0.04529999941587448 0.03999999910593033
		endloop
	endfacet
	facet normal 0 1 0
		outer loop
			vertex 0.009399999864399433 0.04529999941587448 0.039000000804662704
			vertex 0.02159999869763851 0.04529999941587448 0.03999999910593033
			vertex 0.02159999869763851 0.04529999941587448 0.039000000804662704
		endloop
	endfacet
	facet normal 0 1 0
		outer loop
			vertex 0.009399999864399433 0.04529999941587448 0.039000000804662704
			vertex 0.009399999864399433 0.04529999941587448 0.03999999910593033
			vertex 0.02159999869763851 0.04529999941587448 0.03999999910593033
		endloop
	endfacet
	facet normal 1 0 0
		outer loop
			vertex 0.01119999960064888 0.013599999248981476 0.039000000804662704
			vertex 0.01119999960064888 0.010999999940395355 0.03999999910593033
			vertex 0.01119999960064888 0.010999999940395355 0.039000000804662704
		endloop
	endfacet
	facet normal 1 0 0
		outer loop
			vertex 0.01119999960064888 0.013599999248981476 0.039000000804662704
			vertex 0.01119999960064888 0.013599999248981476 0.03999999910593033
			vertex 0.01119999960064888 0.010999999940395355 0.03999999910593033
		endloop
	endfacet
	facet normal 0 1 0
		outer loop
			vertex 0.01119999960064888 0.010999999940395355 0.039000000804662704
			vertex 0.013799999840557575 0.010999999940395355 0.03999999910593033
			vertex 0.013799999840557575 0.010999999940395355 0.039000000804662704
		endloop
	endfacet
	facet normal 0 1 0
		outer loop
			vertex 0.01119999960064888 0.010999999940395355 0.039000000804662704
			vertex 0.01119999960064888 0.010999999940395355 0.03999999910593033
			vertex 0.013799999840557575 0.010999999940395355 0.03999999910593033
		endloop
	endfacet
	facet normal -1 0 0
		outer loop
			vertex 0.013799999840557575 0.010999999940395355 0.039000000804662704
			vertex 0.013799999840557575 0.013599999248981476 0.03999999910593033
			vertex 0.013799999840557575 0.013599999248981476 0.039000000804662704
		endloop
	endfacet
	facet normal -1 0 0
		outer loop
			vertex 0.013799999840557575 0.010999999940395355 0.039000000804662704
			vertex 0.013799999840557575 0.010999999940395355 0.03999999910593033
			vertex 0.013799999840557575 0.013599999248981476 0.03999999910593033
		endloop
	endfacet
	facet normal 0 -1 0
		outer loop
			vertex 0.013799999840557575 0.013599999248981476 0.039000000804662704
			vertex 0.01119999960064888 0.013599999248981476 0.03999999910593033
			vertex 0.01119999960064888 0.013599999248981476 0.039000000804662704
		endloop
	endfacet
	facet normal 0 -1 0
		outer loop
			vertex 0.013799999840557575 0.013599999248981476 0.039000000804662704
			vertex 0.013799999840557575 0.013599999248981476 0.03999999910593033
			vertex 0.01119999960064888 0.013599999248981476 0.03999999910593033
		endloop
	endfacet
	facet normal -0.9973322839240071 0.07299531110231501 0
		outer loop
			vertex 0.007415669038891792 0.045040715485811234 0.039000000804662704
			vertex 0.007522474974393845 0.04650000110268593 0.03999999910593033
			vertex 0.007522474974393845 0.04650000110268593 0.039000000804662704
		endloop
	endfacet
	facet normal -0.9973322839240071 0.07299531110231501 0
		outer loop
			vertex 0.007415669038891792 0.045040715485811234 0.039000000804662704
			vertex 0.007415669038891792 0.045040715485811234 0.03999999910593033
			vertex 0.007522474974393845 0.04650000110268593 0.03999999910593033
		endloop
	endfacet
	facet normal -0.9760757835366687 0.2174305976473374 0
		outer loop
			vertex 0.007097527850419283 0.043612536042928696 0.039000000804662704
			vertex 0.007097527850419283 0.043612536042928696 0.03999999910593033
			vertex 0.007415669038891792 0.045040715485811234 0.03999999910593033
		endloop
	endfacet
	facet normal -0.9760757835366687 0.2174305976473374 0
		outer loop
			vertex 0.007097527850419283 0.043612536042928696 0.039000000804662704
			vertex 0.007415669038891792 0.045040715485811234 0.03999999910593033
			vertex 0.007415669038891792 0.045040715485811234 0.039000000804662704
		endloop
	endfacet
	facet normal -0.9340161279321101 0.3572308396019418 0
		outer loop
			vertex 0.0065748319029808044 0.04224589467048645 0.039000000804662704
			vertex 0.007097527850419283 0.043612536042928696 0.03999999910593033
			vertex 0.007097527850419283 0.043612536042928696 0.039000000804662704
		endloop
	endfacet
	facet normal -0.9340161279321101 0.3572308396019418 0
		outer loop
			vertex 0.0065748319029808044 0.04224589467048645 0.039000000804662704
			vertex 0.0065748319029808044 0.04224589467048645 0.03999999910593033
			vertex 0.007097527850419283 0.043612536042928696 0.03999999910593033
		endloop
	endfacet
	facet normal -0.8720494578248817 0.4894177592888614 0
		outer loop
			vertex 0.0058587221428751945 0.04096992313861847 0.039000000804662704
			vertex 0.0065748319029808044 0.04224589467048645 0.03999999910593033
			vertex 0.0065748319029808044 0.04224589467048645 0.039000000804662704
		endloop
	endfacet
	facet normal -0.8720494578248817 0.4894177592888614 0
		outer loop
			vertex 0.0058587221428751945 0.04096992313861847 0.039000000804662704
			vertex 0.0058587221428751945 0.04096992313861847 0.03999999910593033
			vertex 0.0065748319029808044 0.04224589467048645 0.03999999910593033
		endloop
	endfacet
	facet normal -0.791496381723411 0.6111738522865229 0
		outer loop
			vertex 0.004964460618793964 0.039811816066503525 0.039000000804662704
			vertex 0.0058587221428751945 0.04096992313861847 0.03999999910593033
			vertex 0.0058587221428751945 0.04096992313861847 0.039000000804662704
		endloop
	endfacet
	facet normal -0.791496381723411 0.6111738522865229 0
		outer loop
			vertex 0.004964460618793964 0.039811816066503525 0.039000000804662704
			vertex 0.004964460618793964 0.039811816066503525 0.03999999910593033
			vertex 0.0058587221428751945 0.04096992313861847 0.03999999910593033
		endloop
	endfacet
	facet normal -0.6940748576900351 0.7199028350566191 0
		outer loop
			vertex 0.00391110684722662 0.03879625350236893 0.039000000804662704
			vertex 0.004964460618793964 0.039811816066503525 0.03999999910593033
			vertex 0.004964460618793964 0.039811816066503525 0.039000000804662704
		endloop
	endfacet
	facet normal -0.6940748576900351 0.7199028350566191 0
		outer loop
			vertex 0.00391110684722662 0.03879625350236893 0.039000000804662704
			vertex 0.00391110684722662 0.03879625350236893 0.03999999910593033
			vertex 0.004964460618793964 0.039811816066503525 0.03999999910593033
		endloop
	endfacet
	facet normal -0.5818579445685258 0.8132904354180557 0
		outer loop
			vertex 0.0027211112901568413 0.03794488683342934 0.039000000804662704
			vertex 0.00391110684722662 0.03879625350236893 0.03999999910593033
			vertex 0.00391110684722662 0.03879625350236893 0.039000000804662704
		endloop
	endfacet
	facet normal -0.5818579445685258 0.8132904354180557 0
		outer loop
			vertex 0.0027211112901568413 0.03794488683342934 0.039000000804662704
			vertex 0.0027211112901568413 0.03794488683342934 0.03999999910593033
			vertex 0.00391110684722662 0.03879625350236893 0.03999999910593033
		endloop
	endfacet
	facet normal -0.4572429495526174 0.8893418269059555 0
		outer loop
			vertex 0.0014198371209204197 0.037275854498147964 0.039000000804662704
			vertex 0.0027211112901568413 0.03794488683342934 0.03999999910593033
			vertex 0.0027211112901568413 0.03794488683342934 0.039000000804662704
		endloop
	endfacet
	facet normal -0.4572429495526174 0.8893418269059555 0
		outer loop
			vertex 0.0014198371209204197 0.037275854498147964 0.039000000804662704
			vertex 0.0014198371209204197 0.037275854498147964 0.03999999910593033
			vertex 0.0027211112901568413 0.03794488683342934 0.03999999910593033
		endloop
	endfacet
	facet normal -0.32288000053780824 0.9464399110628763 0
		outer loop
			vertex 0.000035018412745557725 0.03680342063307762 0.039000000804662704
			vertex 0.0014198371209204197 0.037275854498147964 0.03999999910593033
			vertex 0.0014198371209204197 0.037275854498147964 0.039000000804662704
		endloop
	endfacet
	facet normal -0.32288000053780824 0.9464399110628763 0
		outer loop
			vertex 0.000035018412745557725 0.03680342063307762 0.039000000804662704
			vertex 0.000035018412745557725 0.03680342063307762 0.03999999910593033
			vertex 0.0014198371209204197 0.037275854498147964 0.03999999910593033
		endloop
	endfacet
	facet normal -0.1816374463638659 0.9833655668561992 0
		outer loop
			vertex -0.0014038298977538943 0.03653765097260475 0.039000000804662704
			vertex 0.000035018412745557725 0.03680342063307762 0.03999999910593033
			vertex 0.000035018412745557725 0.03680342063307762 0.039000000804662704
		endloop
	endfacet
	facet normal -0.1816374463638659 0.9833655668561992 0
		outer loop
			vertex -0.0014038298977538943 0.03653765097260475 0.039000000804662704
			vertex -0.0014038298977538943 0.03653765097260475 0.03999999910593033
			vertex 0.000035018412745557725 0.03680342063307762 0.03999999910593033
		endloop
	endfacet
	facet normal -0.036522517689884515 0.9993328302930873 0
		outer loop
			vertex -0.002866041148081422 0.036484211683273315 0.039000000804662704
			vertex -0.0014038298977538943 0.03653765097260475 0.03999999910593033
			vertex -0.0014038298977538943 0.03653765097260475 0.039000000804662704
		endloop
	endfacet
	facet normal -0.036522517689884515 0.9993328302930873 0
		outer loop
			vertex -0.002866041148081422 0.036484211683273315 0.039000000804662704
			vertex -0.002866041148081422 0.036484211683273315 0.03999999910593033
			vertex -0.0014038298977538943 0.03653765097260475 0.03999999910593033
		endloop
	endfacet
	facet normal 0.10937152912301269 0.9940009399478926 0
		outer loop
			vertex -0.004320450592786074 0.03664424270391464 0.039000000804662704
			vertex -0.002866041148081422 0.036484211683273315 0.03999999910593033
			vertex -0.002866041148081422 0.036484211683273315 0.039000000804662704
		endloop
	endfacet
	facet normal 0.10937152912301269 0.9940009399478926 0
		outer loop
			vertex -0.004320450592786074 0.03664424270391464 0.039000000804662704
			vertex -0.004320450592786074 0.03664424270391464 0.03999999910593033
			vertex -0.002866041148081422 0.036484211683273315 0.03999999910593033
		endloop
	endfacet
	facet normal 0.2529333394708368 0.9674837082784034 0
		outer loop
			vertex -0.005736060906201601 0.03701433166861534 0.039000000804662704
			vertex -0.004320450592786074 0.03664424270391464 0.03999999910593033
			vertex -0.004320450592786074 0.03664424270391464 0.039000000804662704
		endloop
	endfacet
	facet normal 0.2529333394708368 0.9674837082784034 0
		outer loop
			vertex -0.005736060906201601 0.03701433166861534 0.039000000804662704
			vertex -0.005736060906201601 0.03701433166861534 0.03999999910593033
			vertex -0.004320450592786074 0.03664424270391464 0.03999999910593033
		endloop
	endfacet
	facet normal 0.3911052937849543 0.9203459399450757 0
		outer loop
			vertex -0.007082699798047543 0.03758659213781357 0.039000000804662704
			vertex -0.005736060906201601 0.03701433166861534 0.03999999910593033
			vertex -0.005736060906201601 0.03701433166861534 0.039000000804662704
		endloop
	endfacet
	facet normal 0.3911052937849543 0.9203459399450757 0
		outer loop
			vertex -0.007082699798047543 0.03758659213781357 0.039000000804662704
			vertex -0.007082699798047543 0.03758659213781357 0.03999999910593033
			vertex -0.005736060906201601 0.03701433166861534 0.03999999910593033
		endloop
	endfacet
	facet normal 0.5209394207943836 0.8535936503175339 0
		outer loop
			vertex -0.008331666700541973 0.03834882378578186 0.039000000804662704
			vertex -0.007082699798047543 0.03758659213781357 0.03999999910593033
			vertex -0.007082699798047543 0.03758659213781357 0.039000000804662704
		endloop
	endfacet
	facet normal 0.5209394207943836 0.8535936503175339 0
		outer loop
			vertex -0.008331666700541973 0.03834882378578186 0.039000000804662704
			vertex -0.008331666700541973 0.03834882378578186 0.03999999910593033
			vertex -0.007082699798047543 0.03758659213781357 0.03999999910593033
		endloop
	endfacet
	facet normal 0.6396742640253338 0.768646105788384 0
		outer loop
			vertex -0.009456341154873371 0.03928478807210922 0.039000000804662704
			vertex -0.008331666700541973 0.03834882378578186 0.03999999910593033
			vertex -0.008331666700541973 0.03834882378578186 0.039000000804662704
		endloop
	endfacet
	facet normal 0.6396742640253338 0.768646105788384 0
		outer loop
			vertex -0.009456341154873371 0.03928478807210922 0.039000000804662704
			vertex -0.009456341154873371 0.03928478807210922 0.03999999910593033
			vertex -0.008331666700541973 0.03834882378578186 0.03999999910593033
		endloop
	endfacet
	facet normal 0.7447719334322199 0.6673190894704221 0
		outer loop
			vertex -0.010432753711938858 0.040374528616666794 0.039000000804662704
			vertex -0.009456341154873371 0.03928478807210922 0.03999999910593033
			vertex -0.009456341154873371 0.03928478807210922 0.039000000804662704
		endloop
	endfacet
	facet normal 0.7447719334322199 0.6673190894704221 0
		outer loop
			vertex -0.010432753711938858 0.040374528616666794 0.039000000804662704
			vertex -0.010432753711938858 0.040374528616666794 0.03999999910593033
			vertex -0.009456341154873371 0.03928478807210922 0.03999999910593033
		endloop
	endfacet
	facet normal 0.8339975407883254 0.551768159609655 0
		outer loop
			vertex -0.011240093037486076 0.04159482195973396 0.039000000804662704
			vertex -0.011240093037486076 0.04159482195973396 0.03999999910593033
			vertex -0.010432753711938858 0.040374528616666794 0.03999999910593033
		endloop
	endfacet
	facet normal 0.8339975407883254 0.551768159609655 0
		outer loop
			vertex -0.011240093037486076 0.04159482195973396 0.039000000804662704
			vertex -0.010432753711938858 0.040374528616666794 0.03999999910593033
			vertex -0.010432753711938858 0.040374528616666794 0.039000000804662704
		endloop
	endfacet
	facet normal 0.9054481115499796 0.42445696753684714 0
		outer loop
			vertex -0.011861152946949005 0.04291966184973717 0.039000000804662704
			vertex -0.011861152946949005 0.04291966184973717 0.03999999910593033
			vertex -0.011240093037486076 0.04159482195973396 0.03999999910593033
		endloop
	endfacet
	facet normal 0.9054481115499796 0.42445696753684714 0
		outer loop
			vertex -0.011861152946949005 0.04291966184973717 0.039000000804662704
			vertex -0.011240093037486076 0.04159482195973396 0.03999999910593033
			vertex -0.011240093037486076 0.04159482195973396 0.039000000804662704
		endloop
	endfacet
	facet normal 0.9576006336284507 0.28809898728456124 0
		outer loop
			vertex -0.01228269562125206 0.044320810586214066 0.039000000804662704
			vertex -0.01228269562125206 0.044320810586214066 0.03999999910593033
			vertex -0.011861152946949005 0.04291966184973717 0.03999999910593033
		endloop
	endfacet
	facet normal 0.9576006336284507 0.28809898728456124 0
		outer loop
			vertex -0.01228269562125206 0.044320810586214066 0.039000000804662704
			vertex -0.011861152946949005 0.04291966184973717 0.03999999910593033
			vertex -0.011861152946949005 0.04291966184973717 0.039000000804662704
		endloop
	endfacet
	facet normal 0.9893433706077435 0.1456011505260499 0
		outer loop
			vertex -0.0124957375228405 0.04576840624213219 0.039000000804662704
			vertex -0.0124957375228405 0.04576840624213219 0.03999999910593033
			vertex -0.01228269562125206 0.044320810586214066 0.03999999910593033
		endloop
	endfacet
	facet normal 0.9893433706077435 0.1456011505260499 0
		outer loop
			vertex -0.0124957375228405 0.04576840624213219 0.039000000804662704
			vertex -0.01228269562125206 0.044320810586214066 0.03999999910593033
			vertex -0.01228269562125206 0.044320810586214066 0.039000000804662704
		endloop
	endfacet
	facet normal 1 0 0
		outer loop
			vertex -0.0124957375228405 0.04723159596323967 0.039000000804662704
			vertex -0.0124957375228405 0.04723159596323967 0.03999999910593033
			vertex -0.0124957375228405 0.04576840624213219 0.03999999910593033
		endloop
	endfacet
	facet normal 1 0 0
		outer loop
			vertex -0.0124957375228405 0.04723159596323967 0.039000000804662704
			vertex -0.0124957375228405 0.04576840624213219 0.03999999910593033
			vertex -0.0124957375228405 0.04576840624213219 0.039000000804662704
		endloop
	endfacet
	facet normal 0.9893433166329296 -0.1456015172783406 0
		outer loop
			vertex -0.01228269562125206 0.04867918789386749 0.039000000804662704
			vertex -0.01228269562125206 0.04867918789386749 0.03999999910593033
			vertex -0.0124957375228405 0.04723159596323967 0.03999999910593033
		endloop
	endfacet
	facet normal 0.9893433166329296 -0.1456015172783406 0
		outer loop
			vertex -0.01228269562125206 0.04867918789386749 0.039000000804662704
			vertex -0.0124957375228405 0.04723159596323967 0.03999999910593033
			vertex -0.0124957375228405 0.04723159596323967 0.039000000804662704
		endloop
	endfacet
	facet normal 0.9576006336284507 -0.28809898728456124 0
		outer loop
			vertex -0.011861152946949005 0.05008033663034439 0.039000000804662704
			vertex -0.011861152946949005 0.05008033663034439 0.03999999910593033
			vertex -0.01228269562125206 0.04867918789386749 0.03999999910593033
		endloop
	endfacet
	facet normal 0.9576006336284507 -0.28809898728456124 0
		outer loop
			vertex -0.011861152946949005 0.05008033663034439 0.039000000804662704
			vertex -0.01228269562125206 0.04867918789386749 0.03999999910593033
			vertex -0.01228269562125206 0.04867918789386749 0.039000000804662704
		endloop
	endfacet
	facet normal 0.9054485702472174 -0.42445598904629667 0
		outer loop
			vertex -0.011240093037486076 0.051405180245637894 0.039000000804662704
			vertex -0.011240093037486076 0.051405180245637894 0.03999999910593033
			vertex -0.011861152946949005 0.05008033663034439 0.03999999910593033
		endloop
	endfacet
	facet normal 0.9054485702472174 -0.42445598904629667 0
		outer loop
			vertex -0.011240093037486076 0.051405180245637894 0.039000000804662704
			vertex -0.011861152946949005 0.05008033663034439 0.03999999910593033
			vertex -0.011861152946949005 0.05008033663034439 0.039000000804662704
		endloop
	endfacet
	facet normal 0.8339975407883254 -0.551768159609655 0
		outer loop
			vertex -0.010432753711938858 0.05262547358870506 0.039000000804662704
			vertex -0.010432753711938858 0.05262547358870506 0.03999999910593033
			vertex -0.011240093037486076 0.051405180245637894 0.03999999910593033
		endloop
	endfacet
	facet normal 0.8339975407883254 -0.551768159609655 0
		outer loop
			vertex -0.010432753711938858 0.05262547358870506 0.039000000804662704
			vertex -0.011240093037486076 0.051405180245637894 0.03999999910593033
			vertex -0.011240093037486076 0.051405180245637894 0.039000000804662704
		endloop
	endfacet
	facet normal 0.7447719334322199 -0.6673190894704221 0
		outer loop
			vertex -0.009456341154873371 0.053715214133262634 0.039000000804662704
			vertex -0.009456341154873371 0.053715214133262634 0.03999999910593033
			vertex -0.010432753711938858 0.05262547358870506 0.03999999910593033
		endloop
	endfacet
	facet normal 0.7447719334322199 -0.6673190894704221 0
		outer loop
			vertex -0.009456341154873371 0.053715214133262634 0.039000000804662704
			vertex -0.010432753711938858 0.05262547358870506 0.03999999910593033
			vertex -0.010432753711938858 0.05262547358870506 0.039000000804662704
		endloop
	endfacet
	facet normal 0.6396742640253338 -0.768646105788384 0
		outer loop
			vertex -0.008331666700541973 0.054651178419589996 0.039000000804662704
			vertex -0.009456341154873371 0.053715214133262634 0.03999999910593033
			vertex -0.009456341154873371 0.053715214133262634 0.039000000804662704
		endloop
	endfacet
	facet normal 0.6396742640253338 -0.768646105788384 0
		outer loop
			vertex -0.008331666700541973 0.054651178419589996 0.039000000804662704
			vertex -0.008331666700541973 0.054651178419589996 0.03999999910593033
			vertex -0.009456341154873371 0.053715214133262634 0.03999999910593033
		endloop
	endfacet
	facet normal 0.5209394207943836 -0.8535936503175339 0
		outer loop
			vertex -0.007082699798047543 0.05541341006755829 0.039000000804662704
			vertex -0.008331666700541973 0.054651178419589996 0.03999999910593033
			vertex -0.008331666700541973 0.054651178419589996 0.039000000804662704
		endloop
	endfacet
	facet normal 0.5209394207943836 -0.8535936503175339 0
		outer loop
			vertex -0.007082699798047543 0.05541341006755829 0.039000000804662704
			vertex -0.007082699798047543 0.05541341006755829 0.03999999910593033
			vertex -0.008331666700541973 0.054651178419589996 0.03999999910593033
		endloop
	endfacet
	facet normal 0.3911052937849543 -0.9203459399450757 0
		outer loop
			vertex -0.005736060906201601 0.055985670536756516 0.039000000804662704
			vertex -0.007082699798047543 0.05541341006755829 0.03999999910593033
			vertex -0.007082699798047543 0.05541341006755829 0.039000000804662704
		endloop
	endfacet
	facet normal 0.3911052937849543 -0.9203459399450757 0
		outer loop
			vertex -0.005736060906201601 0.055985670536756516 0.039000000804662704
			vertex -0.005736060906201601 0.055985670536756516 0.03999999910593033
			vertex -0.007082699798047543 0.05541341006755829 0.03999999910593033
		endloop
	endfacet
	facet normal 0.2529333394708368 -0.9674837082784034 0
		outer loop
			vertex -0.004320450592786074 0.056355759501457214 0.039000000804662704
			vertex -0.005736060906201601 0.055985670536756516 0.03999999910593033
			vertex -0.005736060906201601 0.055985670536756516 0.039000000804662704
		endloop
	endfacet
	facet normal 0.2529333394708368 -0.9674837082784034 0
		outer loop
			vertex -0.004320450592786074 0.056355759501457214 0.039000000804662704
			vertex -0.004320450592786074 0.056355759501457214 0.03999999910593033
			vertex -0.005736060906201601 0.055985670536756516 0.03999999910593033
		endloop
	endfacet
	facet normal 0.10937152912301269 -0.9940009399478926 0
		outer loop
			vertex -0.002866041148081422 0.05651579052209854 0.039000000804662704
			vertex -0.004320450592786074 0.056355759501457214 0.03999999910593033
			vertex -0.004320450592786074 0.056355759501457214 0.039000000804662704
		endloop
	endfacet
	facet normal 0.10937152912301269 -0.9940009399478926 0
		outer loop
			vertex -0.002866041148081422 0.05651579052209854 0.039000000804662704
			vertex -0.002866041148081422 0.05651579052209854 0.03999999910593033
			vertex -0.004320450592786074 0.056355759501457214 0.03999999910593033
		endloop
	endfacet
	facet normal -0.036522517689884515 -0.9993328302930873 0
		outer loop
			vertex -0.0014038298977538943 0.056462351232767105 0.039000000804662704
			vertex -0.002866041148081422 0.05651579052209854 0.03999999910593033
			vertex -0.002866041148081422 0.05651579052209854 0.039000000804662704
		endloop
	endfacet
	facet normal -0.036522517689884515 -0.9993328302930873 0
		outer loop
			vertex -0.0014038298977538943 0.056462351232767105 0.039000000804662704
			vertex -0.0014038298977538943 0.056462351232767105 0.03999999910593033
			vertex -0.002866041148081422 0.05651579052209854 0.03999999910593033
		endloop
	endfacet
	facet normal -0.1816374463638659 -0.9833655668561992 0
		outer loop
			vertex 0.000035018412745557725 0.056196581572294235 0.039000000804662704
			vertex -0.0014038298977538943 0.056462351232767105 0.03999999910593033
			vertex -0.0014038298977538943 0.056462351232767105 0.039000000804662704
		endloop
	endfacet
	facet normal -0.1816374463638659 -0.9833655668561992 0
		outer loop
			vertex 0.000035018412745557725 0.056196581572294235 0.039000000804662704
			vertex 0.000035018412745557725 0.056196581572294235 0.03999999910593033
			vertex -0.0014038298977538943 0.056462351232767105 0.03999999910593033
		endloop
	endfacet
	facet normal -0.32288000053780824 -0.9464399110628763 0
		outer loop
			vertex 0.0014198371209204197 0.05572414770722389 0.039000000804662704
			vertex 0.000035018412745557725 0.056196581572294235 0.03999999910593033
			vertex 0.000035018412745557725 0.056196581572294235 0.039000000804662704
		endloop
	endfacet
	facet normal -0.32288000053780824 -0.9464399110628763 0
		outer loop
			vertex 0.0014198371209204197 0.05572414770722389 0.039000000804662704
			vertex 0.0014198371209204197 0.05572414770722389 0.03999999910593033
			vertex 0.000035018412745557725 0.056196581572294235 0.03999999910593033
		endloop
	endfacet
	facet normal -0.4572429495526174 -0.8893418269059555 0
		outer loop
			vertex 0.0027211112901568413 0.05505511537194252 0.039000000804662704
			vertex 0.0014198371209204197 0.05572414770722389 0.03999999910593033
			vertex 0.0014198371209204197 0.05572414770722389 0.039000000804662704
		endloop
	endfacet
	facet normal -0.4572429495526174 -0.8893418269059555 0
		outer loop
			vertex 0.0027211112901568413 0.05505511537194252 0.039000000804662704
			vertex 0.0027211112901568413 0.05505511537194252 0.03999999910593033
			vertex 0.0014198371209204197 0.05572414770722389 0.03999999910593033
		endloop
	endfacet
	facet normal -0.5818579445685258 -0.8132904354180557 0
		outer loop
			vertex 0.00391110684722662 0.05420374870300293 0.039000000804662704
			vertex 0.0027211112901568413 0.05505511537194252 0.03999999910593033
			vertex 0.0027211112901568413 0.05505511537194252 0.039000000804662704
		endloop
	endfacet
	facet normal -0.5818579445685258 -0.8132904354180557 0
		outer loop
			vertex 0.00391110684722662 0.05420374870300293 0.039000000804662704
			vertex 0.00391110684722662 0.05420374870300293 0.03999999910593033
			vertex 0.0027211112901568413 0.05505511537194252 0.03999999910593033
		endloop
	endfacet
	facet normal -0.6940748576900351 -0.7199028350566191 0
		outer loop
			vertex 0.004964460618793964 0.05318818613886833 0.039000000804662704
			vertex 0.00391110684722662 0.05420374870300293 0.03999999910593033
			vertex 0.00391110684722662 0.05420374870300293 0.039000000804662704
		endloop
	endfacet
	facet normal -0.6940748576900351 -0.7199028350566191 0
		outer loop
			vertex 0.004964460618793964 0.05318818613886833 0.039000000804662704
			vertex 0.004964460618793964 0.05318818613886833 0.03999999910593033
			vertex 0.00391110684722662 0.05420374870300293 0.03999999910593033
		endloop
	endfacet
	facet normal -0.791496381723411 -0.6111738522865229 0
		outer loop
			vertex 0.0058587221428751945 0.05203007906675339 0.039000000804662704
			vertex 0.004964460618793964 0.05318818613886833 0.03999999910593033
			vertex 0.004964460618793964 0.05318818613886833 0.039000000804662704
		endloop
	endfacet
	facet normal -0.791496381723411 -0.6111738522865229 0
		outer loop
			vertex 0.0058587221428751945 0.05203007906675339 0.039000000804662704
			vertex 0.0058587221428751945 0.05203007906675339 0.03999999910593033
			vertex 0.004964460618793964 0.05318818613886833 0.03999999910593033
		endloop
	endfacet
	facet normal -0.8720494578248817 -0.4894177592888614 0
		outer loop
			vertex 0.0065748319029808044 0.050754107534885406 0.039000000804662704
			vertex 0.0058587221428751945 0.05203007906675339 0.03999999910593033
			vertex 0.0058587221428751945 0.05203007906675339 0.039000000804662704
		endloop
	endfacet
	facet normal -0.8720494578248817 -0.4894177592888614 0
		outer loop
			vertex 0.0065748319029808044 0.050754107534885406 0.039000000804662704
			vertex 0.0065748319029808044 0.050754107534885406 0.03999999910593033
			vertex 0.0058587221428751945 0.05203007906675339 0.03999999910593033
		endloop
	endfacet
	facet normal -0.9340161279321101 -0.3572308396019418 0
		outer loop
			vertex 0.007097527850419283 0.04938746616244316 0.039000000804662704
			vertex 0.0065748319029808044 0.050754107534885406 0.03999999910593033
			vertex 0.0065748319029808044 0.050754107534885406 0.039000000804662704
		endloop
	endfacet
	facet normal -0.9340161279321101 -0.3572308396019418 0
		outer loop
			vertex 0.007097527850419283 0.04938746616244316 0.039000000804662704
			vertex 0.007097527850419283 0.04938746616244316 0.03999999910593033
			vertex 0.0065748319029808044 0.050754107534885406 0.03999999910593033
		endloop
	endfacet
	facet normal -0.9760759039017691 -0.2174300573111837 0
		outer loop
			vertex 0.007415669038891792 0.047959282994270325 0.039000000804662704
			vertex 0.007097527850419283 0.04938746616244316 0.03999999910593033
			vertex 0.007097527850419283 0.04938746616244316 0.039000000804662704
		endloop
	endfacet
	facet normal -0.9760759039017691 -0.2174300573111837 0
		outer loop
			vertex 0.007415669038891792 0.047959282994270325 0.039000000804662704
			vertex 0.007415669038891792 0.047959282994270325 0.03999999910593033
			vertex 0.007097527850419283 0.04938746616244316 0.03999999910593033
		endloop
	endfacet
	facet normal -0.9973322703580237 -0.07299549645361574 0
		outer loop
			vertex 0.007522474974393845 0.04650000110268593 0.039000000804662704
			vertex 0.007415669038891792 0.047959282994270325 0.03999999910593033
			vertex 0.007415669038891792 0.047959282994270325 0.039000000804662704
		endloop
	endfacet
	facet normal -0.9973322703580237 -0.07299549645361574 0
		outer loop
			vertex 0.007522474974393845 0.04650000110268593 0.039000000804662704
			vertex 0.007522474974393845 0.04650000110268593 0.03999999910593033
			vertex 0.007415669038891792 0.047959282994270325 0.03999999910593033
		endloop
	endfacet
	facet normal 1 0 0
		outer loop
			vertex -0.024000000208616257 0.0020000000949949026 0.0010000000474974513
			vertex -0.024000000208616257 0.07000000029802322 0.039000000804662704
			vertex -0.024000000208616257 0.0020000000949949026 0.039000000804662704
		endloop
	endfacet
	facet normal 1 0 0
		outer loop
			vertex -0.024000000208616257 0.0020000000949949026 0.0010000000474974513
			vertex -0.024000000208616257 0.07000000029802322 0.0010000000474974513
			vertex -0.024000000208616257 0.07000000029802322 0.039000000804662704
		endloop
	endfacet
	facet normal 0 0 -1
		outer loop
			vertex 0.009399999864399433 0.060999996960163116 0.039000000804662704
			vertex 0.024000000208616257 0.07000000029802322 0.039000000804662704
			vertex 0.02159999869763851 0.060999996960163116 0.039000000804662704
		endloop
	endfacet
	facet normal 0 0 -1
		outer loop
			vertex 0.02159999869763851 0.04529999941587448 0.039000000804662704
			vertex 0.02159999869763851 0.060999996960163116 0.039000000804662704
			vertex 0.024000000208616257 0.07000000029802322 0.039000000804662704
		endloop
	endfacet
	facet normal 0 0 -1
		outer loop
			vertex 0.00391110684722662 0.05420374870300293 0.039000000804662704
			vertex 0.009399999864399433 0.060999996960163116 0.039000000804662704
			vertex 0.004964460618793964 0.05318818613886833 0.039000000804662704
		endloop
	endfacet
	facet normal 0 0 -1
		outer loop
			vertex 0.0058587221428751945 0.05203007906675339 0.039000000804662704
			vertex 0.004964460618793964 0.05318818613886833 0.039000000804662704
			vertex 0.009399999864399433 0.060999996960163116 0.039000000804662704
		endloop
	endfacet
	facet normal 0 0 -1
		outer loop
			vertex 0.0027211112901568413 0.05505511537194252 0.039000000804662704
			vertex 0.009399999864399433 0.060999996960163116 0.039000000804662704
			vertex 0.00391110684722662 0.05420374870300293 0.039000000804662704
		endloop
	endfacet
	facet normal 0 0 -1
		outer loop
			vertex 0.0065748319029808044 0.050754107534885406 0.039000000804662704
			vertex 0.0058587221428751945 0.05203007906675339 0.039000000804662704
			vertex 0.009399999864399433 0.060999996960163116 0.039000000804662704
		endloop
	endfacet
	facet normal 0 0 -1
		outer loop
			vertex 0.0014198371209204197 0.05572414770722389 0.039000000804662704
			vertex 0.009399999864399433 0.060999996960163116 0.039000000804662704
			vertex 0.0027211112901568413 0.05505511537194252 0.039000000804662704
		endloop
	endfacet
	facet normal 0 0 -1
		outer loop
			vertex 0.000035018412745557725 0.056196581572294235 0.039000000804662704
			vertex 0.009399999864399433 0.060999996960163116 0.039000000804662704
			vertex 0.0014198371209204197 0.05572414770722389 0.039000000804662704
		endloop
	endfacet
	facet normal 0 0 -1
		outer loop
			vertex -0.0014038298977538943 0.056462351232767105 0.039000000804662704
			vertex 0.009399999864399433 0.060999996960163116 0.039000000804662704
			vertex 0.000035018412745557725 0.056196581572294235 0.039000000804662704
		endloop
	endfacet
	facet normal 0 0 -1
		outer loop
			vertex 0.009399999864399433 0.04529999941587448 0.039000000804662704
			vertex 0.007415669038891792 0.047959282994270325 0.039000000804662704
			vertex 0.007097527850419283 0.04938746616244316 0.039000000804662704
		endloop
	endfacet
	facet normal 0 0 -1
		outer loop
			vertex 0.007522474974393845 0.04650000110268593 0.039000000804662704
			vertex 0.007415669038891792 0.047959282994270325 0.039000000804662704
			vertex 0.009399999864399433 0.04529999941587448 0.039000000804662704
		endloop
	endfacet
	facet normal 0 0 -1
		outer loop
			vertex -0.002866041148081422 0.05651579052209854 0.039000000804662704
			vertex 0.009399999864399433 0.060999996960163116 0.039000000804662704
			vertex -0.0014038298977538943 0.056462351232767105 0.039000000804662704
		endloop
	endfacet
	facet normal 0 0 -1
		outer loop
			vertex 0.007415669038891792 0.045040715485811234 0.039000000804662704
			vertex 0.007522474974393845 0.04650000110268593 0.039000000804662704
			vertex 0.009399999864399433 0.04529999941587448 0.039000000804662704
		endloop
	endfacet
	facet normal 0 0 -1
		outer loop
			vertex 0.007097527850419283 0.043612536042928696 0.039000000804662704
			vertex 0.007415669038891792 0.045040715485811234 0.039000000804662704
			vertex 0.009399999864399433 0.04529999941587448 0.039000000804662704
		endloop
	endfacet
	facet normal 0 0 -1
		outer loop
			vertex 0.0065748319029808044 0.04224589467048645 0.039000000804662704
			vertex 0.009399999864399433 0.04529999941587448 0.039000000804662704
			vertex 0.02159999869763851 0.04529999941587448 0.039000000804662704
		endloop
	endfacet
	facet normal 0 0 -1
		outer loop
			vertex 0.0065748319029808044 0.04224589467048645 0.039000000804662704
			vertex 0.007097527850419283 0.043612536042928696 0.039000000804662704
			vertex 0.009399999864399433 0.04529999941587448 0.039000000804662704
		endloop
	endfacet
	facet normal 0 0 -1
		outer loop
			vertex 0.0058587221428751945 0.04096992313861847 0.039000000804662704
			vertex 0.0065748319029808044 0.04224589467048645 0.039000000804662704
			vertex 0.02159999869763851 0.04529999941587448 0.039000000804662704
		endloop
	endfacet
	facet normal 0 0 -1
		outer loop
			vertex -0.024000000208616257 0.07000000029802322 0.039000000804662704
			vertex -0.002866041148081422 0.05651579052209854 0.039000000804662704
			vertex -0.004320450592786074 0.056355759501457214 0.039000000804662704
		endloop
	endfacet
	facet normal 0 0 -1
		outer loop
			vertex -0.024000000208616257 0.07000000029802322 0.039000000804662704
			vertex -0.004320450592786074 0.056355759501457214 0.039000000804662704
			vertex -0.005736060906201601 0.055985670536756516 0.039000000804662704
		endloop
	endfacet
	facet normal 0 0 -1
		outer loop
			vertex -0.024000000208616257 0.07000000029802322 0.039000000804662704
			vertex -0.005736060906201601 0.055985670536756516 0.039000000804662704
			vertex -0.007082699798047543 0.05541341006755829 0.039000000804662704
		endloop
	endfacet
	facet normal 0 0 -1
		outer loop
			vertex -0.024000000208616257 0.07000000029802322 0.039000000804662704
			vertex -0.007082699798047543 0.05541341006755829 0.039000000804662704
			vertex -0.008331666700541973 0.054651178419589996 0.039000000804662704
		endloop
	endfacet
	facet normal 0 0 -1
		outer loop
			vertex -0.024000000208616257 0.07000000029802322 0.039000000804662704
			vertex 0.024000000208616257 0.07000000029802322 0.039000000804662704
			vertex 0.009399999864399433 0.060999996960163116 0.039000000804662704
		endloop
	endfacet
	facet normal 0 0 -1
		outer loop
			vertex -0.024000000208616257 0.07000000029802322 0.039000000804662704
			vertex 0.009399999864399433 0.060999996960163116 0.039000000804662704
			vertex -0.002866041148081422 0.05651579052209854 0.039000000804662704
		endloop
	endfacet
	facet normal 0 0 -1
		outer loop
			vertex 0.004964460618793964 0.039811816066503525 0.039000000804662704
			vertex 0.0058587221428751945 0.04096992313861847 0.039000000804662704
			vertex 0.02159999869763851 0.04529999941587448 0.039000000804662704
		endloop
	endfacet
	facet normal 0 0 -1
		outer loop
			vertex -0.009456341154873371 0.053715214133262634 0.039000000804662704
			vertex -0.024000000208616257 0.07000000029802322 0.039000000804662704
			vertex -0.008331666700541973 0.054651178419589996 0.039000000804662704
		endloop
	endfacet
	facet normal 0 0 -1
		outer loop
			vertex -0.010432753711938858 0.05262547358870506 0.039000000804662704
			vertex -0.024000000208616257 0.07000000029802322 0.039000000804662704
			vertex -0.009456341154873371 0.053715214133262634 0.039000000804662704
		endloop
	endfacet
	facet normal 0 0 -1
		outer loop
			vertex -0.011240093037486076 0.051405180245637894 0.039000000804662704
			vertex -0.024000000208616257 0.07000000029802322 0.039000000804662704
			vertex -0.010432753711938858 0.05262547358870506 0.039000000804662704
		endloop
	endfacet
	facet normal 0 0 -1
		outer loop
			vertex -0.011861152946949005 0.05008033663034439 0.039000000804662704
			vertex -0.024000000208616257 0.07000000029802322 0.039000000804662704
			vertex -0.011240093037486076 0.051405180245637894 0.039000000804662704
		endloop
	endfacet
	facet normal 0 0 -1
		outer loop
			vertex -0.01228269562125206 0.04867918789386749 0.039000000804662704
			vertex -0.024000000208616257 0.07000000029802322 0.039000000804662704
			vertex -0.011861152946949005 0.05008033663034439 0.039000000804662704
		endloop
	endfacet
	facet normal 0 0 -1
		outer loop
			vertex -0.0124957375228405 0.04723159596323967 0.039000000804662704
			vertex -0.024000000208616257 0.07000000029802322 0.039000000804662704
			vertex -0.01228269562125206 0.04867918789386749 0.039000000804662704
		endloop
	endfacet
	facet normal 0 0 -1
		outer loop
			vertex -0.0124957375228405 0.04576840624213219 0.039000000804662704
			vertex -0.024000000208616257 0.07000000029802322 0.039000000804662704
			vertex -0.0124957375228405 0.04723159596323967 0.039000000804662704
		endloop
	endfacet
	facet normal 0 0 -1
		outer loop
			vertex -0.01228269562125206 0.044320810586214066 0.039000000804662704
			vertex -0.024000000208616257 0.07000000029802322 0.039000000804662704
			vertex -0.0124957375228405 0.04576840624213219 0.039000000804662704
		endloop
	endfacet
	facet normal 0 0 -1
		outer loop
			vertex 0.013799999840557575 0.013599999248981476 0.039000000804662704
			vertex 0.004964460618793964 0.039811816066503525 0.039000000804662704
			vertex 0.02159999869763851 0.04529999941587448 0.039000000804662704
		endloop
	endfacet
	facet normal 0 0 -1
		outer loop
			vertex 0.013799999840557575 0.013599999248981476 0.039000000804662704
			vertex 0.00391110684722662 0.03879625350236893 0.039000000804662704
			vertex 0.004964460618793964 0.039811816066503525 0.039000000804662704
		endloop
	endfacet
	facet normal 0 0 -1
		outer loop
			vertex 0.024000000208616257 0.0020000000949949026 0.039000000804662704
			vertex 0.013799999840557575 0.013599999248981476 0.039000000804662704
			vertex 0.02159999869763851 0.04529999941587448 0.039000000804662704
		endloop
	endfacet
	facet normal 0 0 -1
		outer loop
			vertex 0.01119999960064888 0.013599999248981476 0.039000000804662704
			vertex -0.004320450592786074 0.03664424270391464 0.039000000804662704
			vertex -0.002866041148081422 0.036484211683273315 0.039000000804662704
		endloop
	endfacet
	facet normal 0 0 -1
		outer loop
			vertex 0.01119999960064888 0.013599999248981476 0.039000000804662704
			vertex -0.002866041148081422 0.036484211683273315 0.039000000804662704
			vertex -0.0014038298977538943 0.03653765097260475 0.039000000804662704
		endloop
	endfacet
	facet normal 0 0 -1
		outer loop
			vertex 0.01119999960064888 0.013599999248981476 0.039000000804662704
			vertex -0.0014038298977538943 0.03653765097260475 0.039000000804662704
			vertex 0.000035018412745557725 0.03680342063307762 0.039000000804662704
		endloop
	endfacet
	facet normal 0 0 -1
		outer loop
			vertex 0.01119999960064888 0.013599999248981476 0.039000000804662704
			vertex 0.000035018412745557725 0.03680342063307762 0.039000000804662704
			vertex 0.0014198371209204197 0.037275854498147964 0.039000000804662704
		endloop
	endfacet
	facet normal 0 0 -1
		outer loop
			vertex 0.01119999960064888 0.013599999248981476 0.039000000804662704
			vertex 0.0014198371209204197 0.037275854498147964 0.039000000804662704
			vertex 0.0027211112901568413 0.03794488683342934 0.039000000804662704
		endloop
	endfacet
	facet normal 0 0 -1
		outer loop
			vertex 0.01119999960064888 0.013599999248981476 0.039000000804662704
			vertex 0.0027211112901568413 0.03794488683342934 0.039000000804662704
			vertex 0.00391110684722662 0.03879625350236893 0.039000000804662704
		endloop
	endfacet
	facet normal 0 0 -1
		outer loop
			vertex 0.01119999960064888 0.013599999248981476 0.039000000804662704
			vertex 0.00391110684722662 0.03879625350236893 0.039000000804662704
			vertex 0.013799999840557575 0.013599999248981476 0.039000000804662704
		endloop
	endfacet
	facet normal 0 0 -1
		outer loop
			vertex 0.013799999840557575 0.010999999940395355 0.039000000804662704
			vertex 0.013799999840557575 0.013599999248981476 0.039000000804662704
			vertex 0.024000000208616257 0.0020000000949949026 0.039000000804662704
		endloop
	endfacet
	facet normal 0 0 -1
		outer loop
			vertex 0.01119999960064888 0.010999999940395355 0.039000000804662704
			vertex 0.013799999840557575 0.010999999940395355 0.039000000804662704
			vertex 0.024000000208616257 0.0020000000949949026 0.039000000804662704
		endloop
	endfacet
	facet normal 0 0 -1
		outer loop
			vertex -0.024000000208616257 0.0020000000949949026 0.039000000804662704
			vertex -0.024000000208616257 0.07000000029802322 0.039000000804662704
			vertex -0.01228269562125206 0.044320810586214066 0.039000000804662704
		endloop
	endfacet
	facet normal 0 0 -1
		outer loop
			vertex -0.024000000208616257 0.0020000000949949026 0.039000000804662704
			vertex 0.01119999960064888 0.013599999248981476 0.039000000804662704
			vertex 0.01119999960064888 0.010999999940395355 0.039000000804662704
		endloop
	endfacet
	facet normal 0 0 -1
		outer loop
			vertex -0.024000000208616257 0.0020000000949949026 0.039000000804662704
			vertex -0.01228269562125206 0.044320810586214066 0.039000000804662704
			vertex -0.011861152946949005 0.04291966184973717 0.039000000804662704
		endloop
	endfacet
	facet normal 0 0 -1
		outer loop
			vertex -0.024000000208616257 0.0020000000949949026 0.039000000804662704
			vertex -0.011861152946949005 0.04291966184973717 0.039000000804662704
			vertex -0.011240093037486076 0.04159482195973396 0.039000000804662704
		endloop
	endfacet
	facet normal 0 0 -1
		outer loop
			vertex -0.024000000208616257 0.0020000000949949026 0.039000000804662704
			vertex -0.011240093037486076 0.04159482195973396 0.039000000804662704
			vertex -0.010432753711938858 0.040374528616666794 0.039000000804662704
		endloop
	endfacet
	facet normal 0 0 -1
		outer loop
			vertex -0.024000000208616257 0.0020000000949949026 0.039000000804662704
			vertex -0.010432753711938858 0.040374528616666794 0.039000000804662704
			vertex -0.009456341154873371 0.03928478807210922 0.039000000804662704
		endloop
	endfacet
	facet normal 0 0 -1
		outer loop
			vertex -0.024000000208616257 0.0020000000949949026 0.039000000804662704
			vertex -0.009456341154873371 0.03928478807210922 0.039000000804662704
			vertex -0.008331666700541973 0.03834882378578186 0.039000000804662704
		endloop
	endfacet
	facet normal 0 0 -1
		outer loop
			vertex -0.024000000208616257 0.0020000000949949026 0.039000000804662704
			vertex -0.008331666700541973 0.03834882378578186 0.039000000804662704
			vertex -0.007082699798047543 0.03758659213781357 0.039000000804662704
		endloop
	endfacet
	facet normal 0 0 -1
		outer loop
			vertex -0.024000000208616257 0.0020000000949949026 0.039000000804662704
			vertex -0.007082699798047543 0.03758659213781357 0.039000000804662704
			vertex -0.005736060906201601 0.03701433166861534 0.039000000804662704
		endloop
	endfacet
	facet normal 0 0 -1
		outer loop
			vertex -0.024000000208616257 0.0020000000949949026 0.039000000804662704
			vertex -0.005736060906201601 0.03701433166861534 0.039000000804662704
			vertex -0.004320450592786074 0.03664424270391464 0.039000000804662704
		endloop
	endfacet
	facet normal 0 0 -1
		outer loop
			vertex -0.024000000208616257 0.0020000000949949026 0.039000000804662704
			vertex 0.01119999960064888 0.010999999940395355 0.039000000804662704
			vertex 0.024000000208616257 0.0020000000949949026 0.039000000804662704
		endloop
	endfacet
	facet normal 0 0 -1
		outer loop
			vertex -0.024000000208616257 0.0020000000949949026 0.039000000804662704
			vertex -0.004320450592786074 0.03664424270391464 0.039000000804662704
			vertex 0.01119999960064888 0.013599999248981476 0.039000000804662704
		endloop
	endfacet
	facet normal 0 0 -1
		outer loop
			vertex 0.024000000208616257 0.0020000000949949026 0.039000000804662704
			vertex 0.02159999869763851 0.04529999941587448 0.039000000804662704
			vertex 0.024000000208616257 0.07000000029802322 0.039000000804662704
		endloop
	endfacet
	facet normal 0 0 -1
		outer loop
			vertex 0.009399999864399433 0.04529999941587448 0.039000000804662704
			vertex 0.007097527850419283 0.04938746616244316 0.039000000804662704
			vertex 0.009399999864399433 0.060999996960163116 0.039000000804662704
		endloop
	endfacet
	facet normal 0 0 -1
		outer loop
			vertex 0.007097527850419283 0.04938746616244316 0.039000000804662704
			vertex 0.0065748319029808044 0.050754107534885406 0.039000000804662704
			vertex 0.009399999864399433 0.060999996960163116 0.039000000804662704
		endloop
	endfacet
	facet normal -1 0 0
		outer loop
			vertex 0.024000000208616257 0.0020000000949949026 0.039000000804662704
			vertex 0.024000000208616257 0.07000000029802322 0.0010000000474974513
			vertex 0.024000000208616257 0.0020000000949949026 0.0010000000474974513
		endloop
	endfacet
	facet normal -1 0 0
		outer loop
			vertex 0.024000000208616257 0.0020000000949949026 0.039000000804662704
			vertex 0.024000000208616257 0.07000000029802322 0.039000000804662704
			vertex 0.024000000208616257 0.07000000029802322 0.0010000000474974513
		endloop
	endfacet
	facet normal 0 0 1
		outer loop
			vertex 0.024000000208616257 0.0020000000949949026 0.0010000000474974513
			vertex -0.024000000208616257 0.07000000029802322 0.0010000000474974513
			vertex -0.024000000208616257 0.0020000000949949026 0.0010000000474974513
		endloop
	endfacet
	facet normal 0 0 1
		outer loop
			vertex 0.024000000208616257 0.0020000000949949026 0.0010000000474974513
			vertex 0.024000000208616257 0.07000000029802322 0.0010000000474974513
			vertex -0.024000000208616257 0.07000000029802322 0.0010000000474974513
		endloop
	endfacet
	facet normal 0 1 0
		outer loop
			vertex -0.024000000208616257 0.0020000000949949026 0.0010000000474974513
			vertex -0.024000000208616257 0.0020000000949949026 0.039000000804662704
			vertex -0.013399999588727951 0.0020000000949949026 0.02969999983906746
		endloop
	endfacet
	facet normal 0 1 0
		outer loop
			vertex -0.013399999588727951 0.0020000000949949026 0.010300000198185444
			vertex -0.024000000208616257 0.0020000000949949026 0.0010000000474974513
			vertex -0.013399999588727951 0.0020000000949949026 0.02969999983906746
		endloop
	endfacet
	facet normal 0 1 0
		outer loop
			vertex 0.024000000208616257 0.0020000000949949026 0.039000000804662704
			vertex 0.013399999588727951 0.0020000000949949026 0.02969999983906746
			vertex -0.013399999588727951 0.0020000000949949026 0.02969999983906746
		endloop
	endfacet
	facet normal 0 1 0
		outer loop
			vertex 0.024000000208616257 0.0020000000949949026 0.039000000804662704
			vertex -0.013399999588727951 0.0020000000949949026 0.02969999983906746
			vertex -0.024000000208616257 0.0020000000949949026 0.039000000804662704
		endloop
	endfacet
	facet normal 0 1 0
		outer loop
			vertex 0.024000000208616257 0.0020000000949949026 0.0010000000474974513
			vertex -0.013399999588727951 0.0020000000949949026 0.010300000198185444
			vertex 0.013399999588727951 0.0020000000949949026 0.010300000198185444
		endloop
	endfacet
	facet normal 0 1 0
		outer loop
			vertex 0.024000000208616257 0.0020000000949949026 0.0010000000474974513
			vertex 0.013399999588727951 0.0020000000949949026 0.010300000198185444
			vertex 0.013399999588727951 0.0020000000949949026 0.02969999983906746
		endloop
	endfacet
	facet normal 0 1 0
		outer loop
			vertex 0.024000000208616257 0.0020000000949949026 0.0010000000474974513
			vertex -0.024000000208616257 0.0020000000949949026 0.0010000000474974513
			vertex -0.013399999588727951 0.0020000000949949026 0.010300000198185444
		endloop
	endfacet
	facet normal 0 1 0
		outer loop
			vertex 0.024000000208616257 0.0020000000949949026 0.0010000000474974513
			vertex 0.013399999588727951 0.0020000000949949026 0.02969999983906746
			vertex 0.024000000208616257 0.0020000000949949026 0.039000000804662704
		endloop
	endfacet
	facet normal 1 0 0
		outer loop
			vertex -0.013399999588727951 0.0020000000949949026 0.02969999983906746
			vertex -0.013399999588727951 0 0.010300000198185444
			vertex -0.013399999588727951 0.0020000000949949026 0.010300000198185444
		endloop
	endfacet
	facet normal 1 0 0
		outer loop
			vertex -0.013399999588727951 0.0020000000949949026 0.02969999983906746
			vertex -0.013399999588727951 0 0.02969999983906746
			vertex -0.013399999588727951 0 0.010300000198185444
		endloop
	endfacet
	facet normal 0 0 -1
		outer loop
			vertex 0.013399999588727951 0.0020000000949949026 0.02969999983906746
			vertex -0.013399999588727951 0 0.02969999983906746
			vertex -0.013399999588727951 0.0020000000949949026 0.02969999983906746
		endloop
	endfacet
	facet normal 0 0 -1
		outer loop
			vertex 0.013399999588727951 0.0020000000949949026 0.02969999983906746
			vertex 0.013399999588727951 0 0.02969999983906746
			vertex -0.013399999588727951 0 0.02969999983906746
		endloop
	endfacet
	facet normal -1 0 0
		outer loop
			vertex 0.013399999588727951 0.0020000000949949026 0.010300000198185444
			vertex 0.013399999588727951 0 0.02969999983906746
			vertex 0.013399999588727951 0.0020000000949949026 0.02969999983906746
		endloop
	endfacet
	facet normal -1 0 0
		outer loop
			vertex 0.013399999588727951 0.0020000000949949026 0.010300000198185444
			vertex 0.013399999588727951 0 0.010300000198185444
			vertex 0.013399999588727951 0 0.02969999983906746
		endloop
	endfacet
	facet normal 0 0 1
		outer loop
			vertex -0.013399999588727951 0.0020000000949949026 0.010300000198185444
			vertex 0.013399999588727951 0 0.010300000198185444
			vertex 0.013399999588727951 0.0020000000949949026 0.010300000198185444
		endloop
	endfacet
	facet normal 0 0 1
		outer loop
			vertex -0.013399999588727951 0.0020000000949949026 0.010300000198185444
			vertex -0.013399999588727951 0 0.010300000198185444
			vertex 0.013399999588727951 0 0.010300000198185444
		endloop
	endfacet
	facet normal -1 0 0
		outer loop
			vertex -0.02500000037252903 0.07199999690055847 0.03999999910593033
			vertex -0.02500000037252903 0 0
			vertex -0.02500000037252903 0 0.03999999910593033
		endloop
	endfacet
	facet normal -1 0 0
		outer loop
			vertex -0.02500000037252903 0.07199999690055847 0.03999999910593033
			vertex -0.02500000037252903 0.07199999690055847 0
			vertex -0.02500000037252903 0 0
		endloop
	endfacet
	facet normal 0 0 -1
		outer loop
			vertex -0.02500000037252903 0.07199999690055847 0
			vertex 0.02500000037252903 0 0
			vertex -0.02500000037252903 0 0
		endloop
	endfacet
	facet normal 0 0 -1
		outer loop
			vertex -0.02500000037252903 0.07199999690055847 0
			vertex 0.02500000037252903 0.07199999690055847 0
			vertex 0.02500000037252903 0 0
		endloop
	endfacet
	facet normal 1 0 0
		outer loop
			vertex 0.02500000037252903 0.07199999690055847 0
			vertex 0.02500000037252903 0 0.03999999910593033
			vertex 0.02500000037252903 0 0
		endloop
	endfacet
	facet normal 1 0 0
		outer loop
			vertex 0.02500000037252903 0.07199999690055847 0
			vertex 0.02500000037252903 0.07199999690055847 0.03999999910593033
			vertex 0.02500000037252903 0 0.03999999910593033
		endloop
	endfacet
	facet normal 0 0 1
		outer loop
			vertex 0.01119999960064888 0.013599999248981476 0.03999999910593033
			vertex -0.02500000037252903 0 0.03999999910593033
			vertex 0.01119999960064888 0.010999999940395355 0.03999999910593033
		endloop
	endfacet
	facet normal 0 0 1
		outer loop
			vertex 0.02500000037252903 0 0.03999999910593033
			vertex 0.013799999840557575 0.010999999940395355 0.03999999910593033
			vertex 0.01119999960064888 0.010999999940395355 0.03999999910593033
		endloop
	endfacet
	facet normal 0 0 1
		outer loop
			vertex 0.02500000037252903 0 0.03999999910593033
			vertex 0.01119999960064888 0.010999999940395355 0.03999999910593033
			vertex -0.02500000037252903 0 0.03999999910593033
		endloop
	endfacet
	facet normal 0 0 1
		outer loop
			vertex 0.013799999840557575 0.013599999248981476 0.03999999910593033
			vertex 0.013799999840557575 0.010999999940395355 0.03999999910593033
			vertex 0.02500000037252903 0 0.03999999910593033
		endloop
	endfacet
	facet normal 0 0 1
		outer loop
			vertex -0.010432753711938858 0.040374528616666794 0.03999999910593033
			vertex -0.02500000037252903 0 0.03999999910593033
			vertex -0.009456341154873371 0.03928478807210922 0.03999999910593033
		endloop
	endfacet
	facet normal 0 0 1
		outer loop
			vertex -0.008331666700541973 0.03834882378578186 0.03999999910593033
			vertex -0.009456341154873371 0.03928478807210922 0.03999999910593033
			vertex -0.02500000037252903 0 0.03999999910593033
		endloop
	endfacet
	facet normal 0 0 1
		outer loop
			vertex -0.011240093037486076 0.04159482195973396 0.03999999910593033
			vertex -0.02500000037252903 0 0.03999999910593033
			vertex -0.010432753711938858 0.040374528616666794 0.03999999910593033
		endloop
	endfacet
	facet normal 0 0 1
		outer loop
			vertex -0.007082699798047543 0.03758659213781357 0.03999999910593033
			vertex -0.008331666700541973 0.03834882378578186 0.03999999910593033
			vertex -0.02500000037252903 0 0.03999999910593033
		endloop
	endfacet
	facet normal 0 0 1
		outer loop
			vertex -0.011861152946949005 0.04291966184973717 0.03999999910593033
			vertex -0.02500000037252903 0 0.03999999910593033
			vertex -0.011240093037486076 0.04159482195973396 0.03999999910593033
		endloop
	endfacet
	facet normal 0 0 1
		outer loop
			vertex -0.005736060906201601 0.03701433166861534 0.03999999910593033
			vertex -0.007082699798047543 0.03758659213781357 0.03999999910593033
			vertex -0.02500000037252903 0 0.03999999910593033
		endloop
	endfacet
	facet normal 0 0 1
		outer loop
			vertex -0.01228269562125206 0.044320810586214066 0.03999999910593033
			vertex -0.02500000037252903 0 0.03999999910593033
			vertex -0.011861152946949005 0.04291966184973717 0.03999999910593033
		endloop
	endfacet
	facet normal 0 0 1
		outer loop
			vertex -0.004320450592786074 0.03664424270391464 0.03999999910593033
			vertex -0.02500000037252903 0 0.03999999910593033
			vertex 0.01119999960064888 0.013599999248981476 0.03999999910593033
		endloop
	endfacet
	facet normal 0 0 1
		outer loop
			vertex -0.004320450592786074 0.03664424270391464 0.03999999910593033
			vertex -0.005736060906201601 0.03701433166861534 0.03999999910593033
			vertex -0.02500000037252903 0 0.03999999910593033
		endloop
	endfacet
	facet normal 0 0 1
		outer loop
			vertex -0.002866041148081422 0.036484211683273315 0.03999999910593033
			vertex -0.004320450592786074 0.03664424270391464 0.03999999910593033
			vertex 0.01119999960064888 0.013599999248981476 0.03999999910593033
		endloop
	endfacet
	facet normal 0 0 1
		outer loop
			vertex -0.0014038298977538943 0.03653765097260475 0.03999999910593033
			vertex -0.002866041148081422 0.036484211683273315 0.03999999910593033
			vertex 0.01119999960064888 0.013599999248981476 0.03999999910593033
		endloop
	endfacet
	facet normal 0 0 1
		outer loop
			vertex 0.000035018412745557725 0.03680342063307762 0.03999999910593033
			vertex -0.0014038298977538943 0.03653765097260475 0.03999999910593033
			vertex 0.01119999960064888 0.013599999248981476 0.03999999910593033
		endloop
	endfacet
	facet normal 0 0 1
		outer loop
			vertex 0.0014198371209204197 0.037275854498147964 0.03999999910593033
			vertex 0.000035018412745557725 0.03680342063307762 0.03999999910593033
			vertex 0.01119999960064888 0.013599999248981476 0.03999999910593033
		endloop
	endfacet
	facet normal 0 0 1
		outer loop
			vertex 0.0027211112901568413 0.03794488683342934 0.03999999910593033
			vertex 0.0014198371209204197 0.037275854498147964 0.03999999910593033
			vertex 0.01119999960064888 0.013599999248981476 0.03999999910593033
		endloop
	endfacet
	facet normal 0 0 1
		outer loop
			vertex 0.00391110684722662 0.03879625350236893 0.03999999910593033
			vertex 0.0027211112901568413 0.03794488683342934 0.03999999910593033
			vertex 0.01119999960064888 0.013599999248981476 0.03999999910593033
		endloop
	endfacet
	facet normal 0 0 1
		outer loop
			vertex 0.00391110684722662 0.03879625350236893 0.03999999910593033
			vertex 0.01119999960064888 0.013599999248981476 0.03999999910593033
			vertex 0.013799999840557575 0.013599999248981476 0.03999999910593033
		endloop
	endfacet
	facet normal 0 0 1
		outer loop
			vertex 0.004964460618793964 0.039811816066503525 0.03999999910593033
			vertex 0.00391110684722662 0.03879625350236893 0.03999999910593033
			vertex 0.013799999840557575 0.013599999248981476 0.03999999910593033
		endloop
	endfacet
	facet normal 0 0 1
		outer loop
			vertex -0.02500000037252903 0.07199999690055847 0.03999999910593033
			vertex -0.01228269562125206 0.044320810586214066 0.03999999910593033
			vertex -0.0124957375228405 0.04576840624213219 0.03999999910593033
		endloop
	endfacet
	facet normal 0 0 1
		outer loop
			vertex -0.02500000037252903 0.07199999690055847 0.03999999910593033
			vertex -0.0124957375228405 0.04576840624213219 0.03999999910593033
			vertex -0.0124957375228405 0.04723159596323967 0.03999999910593033
		endloop
	endfacet
	facet normal 0 0 1
		outer loop
			vertex -0.02500000037252903 0.07199999690055847 0.03999999910593033
			vertex -0.0124957375228405 0.04723159596323967 0.03999999910593033
			vertex -0.01228269562125206 0.04867918789386749 0.03999999910593033
		endloop
	endfacet
	facet normal 0 0 1
		outer loop
			vertex -0.02500000037252903 0.07199999690055847 0.03999999910593033
			vertex -0.01228269562125206 0.04867918789386749 0.03999999910593033
			vertex -0.011861152946949005 0.05008033663034439 0.03999999910593033
		endloop
	endfacet
	facet normal 0 0 1
		outer loop
			vertex -0.02500000037252903 0.07199999690055847 0.03999999910593033
			vertex -0.011861152946949005 0.05008033663034439 0.03999999910593033
			vertex -0.011240093037486076 0.051405180245637894 0.03999999910593033
		endloop
	endfacet
	facet normal 0 0 1
		outer loop
			vertex -0.02500000037252903 0.07199999690055847 0.03999999910593033
			vertex -0.011240093037486076 0.051405180245637894 0.03999999910593033
			vertex -0.010432753711938858 0.05262547358870506 0.03999999910593033
		endloop
	endfacet
	facet normal 0 0 1
		outer loop
			vertex -0.02500000037252903 0.07199999690055847 0.03999999910593033
			vertex -0.010432753711938858 0.05262547358870506 0.03999999910593033
			vertex -0.009456341154873371 0.053715214133262634 0.03999999910593033
		endloop
	endfacet
	facet normal 0 0 1
		outer loop
			vertex -0.02500000037252903 0.07199999690055847 0.03999999910593033
			vertex -0.009456341154873371 0.053715214133262634 0.03999999910593033
			vertex -0.008331666700541973 0.054651178419589996 0.03999999910593033
		endloop
	endfacet
	facet normal 0 0 1
		outer loop
			vertex -0.02500000037252903 0.07199999690055847 0.03999999910593033
			vertex -0.02500000037252903 0 0.03999999910593033
			vertex -0.01228269562125206 0.044320810586214066 0.03999999910593033
		endloop
	endfacet
	facet normal 0 0 1
		outer loop
			vertex -0.007082699798047543 0.05541341006755829 0.03999999910593033
			vertex -0.02500000037252903 0.07199999690055847 0.03999999910593033
			vertex -0.008331666700541973 0.054651178419589996 0.03999999910593033
		endloop
	endfacet
	facet normal 0 0 1
		outer loop
			vertex -0.005736060906201601 0.055985670536756516 0.03999999910593033
			vertex -0.02500000037252903 0.07199999690055847 0.03999999910593033
			vertex -0.007082699798047543 0.05541341006755829 0.03999999910593033
		endloop
	endfacet
	facet normal 0 0 1
		outer loop
			vertex -0.004320450592786074 0.056355759501457214 0.03999999910593033
			vertex -0.02500000037252903 0.07199999690055847 0.03999999910593033
			vertex -0.005736060906201601 0.055985670536756516 0.03999999910593033
		endloop
	endfacet
	facet normal 0 0 1
		outer loop
			vertex -0.002866041148081422 0.05651579052209854 0.03999999910593033
			vertex -0.02500000037252903 0.07199999690055847 0.03999999910593033
			vertex -0.004320450592786074 0.056355759501457214 0.03999999910593033
		endloop
	endfacet
	facet normal 0 0 1
		outer loop
			vertex 0.009399999864399433 0.04529999941587448 0.03999999910593033
			vertex 0.007522474974393845 0.04650000110268593 0.03999999910593033
			vertex 0.007415669038891792 0.045040715485811234 0.03999999910593033
		endloop
	endfacet
	facet normal 0 0 1
		outer loop
			vertex 0.009399999864399433 0.04529999941587448 0.03999999910593033
			vertex 0.007415669038891792 0.045040715485811234 0.03999999910593033
			vertex 0.007097527850419283 0.043612536042928696 0.03999999910593033
		endloop
	endfacet
	facet normal 0 0 1
		outer loop
			vertex 0.009399999864399433 0.04529999941587448 0.03999999910593033
			vertex 0.007097527850419283 0.043612536042928696 0.03999999910593033
			vertex 0.0065748319029808044 0.04224589467048645 0.03999999910593033
		endloop
	endfacet
	facet normal 0 0 1
		outer loop
			vertex 0.007415669038891792 0.047959282994270325 0.03999999910593033
			vertex 0.007522474974393845 0.04650000110268593 0.03999999910593033
			vertex 0.009399999864399433 0.04529999941587448 0.03999999910593033
		endloop
	endfacet
	facet normal 0 0 1
		outer loop
			vertex 0.007097527850419283 0.04938746616244316 0.03999999910593033
			vertex 0.007415669038891792 0.047959282994270325 0.03999999910593033
			vertex 0.009399999864399433 0.04529999941587448 0.03999999910593033
		endloop
	endfacet
	facet normal 0 0 1
		outer loop
			vertex 0.02159999869763851 0.04529999941587448 0.03999999910593033
			vertex 0.004964460618793964 0.039811816066503525 0.03999999910593033
			vertex 0.013799999840557575 0.013599999248981476 0.03999999910593033
		endloop
	endfacet
	facet normal 0 0 1
		outer loop
			vertex 0.02159999869763851 0.04529999941587448 0.03999999910593033
			vertex 0.0065748319029808044 0.04224589467048645 0.03999999910593033
			vertex 0.0058587221428751945 0.04096992313861847 0.03999999910593033
		endloop
	endfacet
	facet normal 0 0 1
		outer loop
			vertex 0.02159999869763851 0.04529999941587448 0.03999999910593033
			vertex 0.0058587221428751945 0.04096992313861847 0.03999999910593033
			vertex 0.004964460618793964 0.039811816066503525 0.03999999910593033
		endloop
	endfacet
	facet normal 0 0 1
		outer loop
			vertex 0.02159999869763851 0.04529999941587448 0.03999999910593033
			vertex 0.009399999864399433 0.04529999941587448 0.03999999910593033
			vertex 0.0065748319029808044 0.04224589467048645 0.03999999910593033
		endloop
	endfacet
	facet normal 0 0 1
		outer loop
			vertex 0.02159999869763851 0.04529999941587448 0.03999999910593033
			vertex 0.013799999840557575 0.013599999248981476 0.03999999910593033
			vertex 0.02500000037252903 0 0.03999999910593033
		endloop
	endfacet
	facet normal 0 0 1
		outer loop
			vertex 0.009399999864399433 0.060999996960163116 0.03999999910593033
			vertex -0.02500000037252903 0.07199999690055847 0.03999999910593033
			vertex -0.002866041148081422 0.05651579052209854 0.03999999910593033
		endloop
	endfacet
	facet normal 0 0 1
		outer loop
			vertex 0.009399999864399433 0.060999996960163116 0.03999999910593033
			vertex -0.002866041148081422 0.05651579052209854 0.03999999910593033
			vertex -0.0014038298977538943 0.056462351232767105 0.03999999910593033
		endloop
	endfacet
	facet normal 0 0 1
		outer loop
			vertex 0.009399999864399433 0.060999996960163116 0.03999999910593033
			vertex -0.0014038298977538943 0.056462351232767105 0.03999999910593033
			vertex 0.000035018412745557725 0.056196581572294235 0.03999999910593033
		endloop
	endfacet
	facet normal 0 0 1
		outer loop
			vertex 0.009399999864399433 0.060999996960163116 0.03999999910593033
			vertex 0.000035018412745557725 0.056196581572294235 0.03999999910593033
			vertex 0.0014198371209204197 0.05572414770722389 0.03999999910593033
		endloop
	endfacet
	facet normal 0 0 1
		outer loop
			vertex 0.009399999864399433 0.060999996960163116 0.03999999910593033
			vertex 0.0014198371209204197 0.05572414770722389 0.03999999910593033
			vertex 0.0027211112901568413 0.05505511537194252 0.03999999910593033
		endloop
	endfacet
	facet normal 0 0 1
		outer loop
			vertex 0.009399999864399433 0.060999996960163116 0.03999999910593033
			vertex 0.0027211112901568413 0.05505511537194252 0.03999999910593033
			vertex 0.00391110684722662 0.05420374870300293 0.03999999910593033
		endloop
	endfacet
	facet normal 0 0 1
		outer loop
			vertex 0.009399999864399433 0.060999996960163116 0.03999999910593033
			vertex 0.00391110684722662 0.05420374870300293 0.03999999910593033
			vertex 0.004964460618793964 0.05318818613886833 0.03999999910593033
		endloop
	endfacet
	facet normal 0 0 1
		outer loop
			vertex 0.009399999864399433 0.060999996960163116 0.03999999910593033
			vertex 0.004964460618793964 0.05318818613886833 0.03999999910593033
			vertex 0.0058587221428751945 0.05203007906675339 0.03999999910593033
		endloop
	endfacet
	facet normal 0 0 1
		outer loop
			vertex 0.009399999864399433 0.060999996960163116 0.03999999910593033
			vertex 0.0058587221428751945 0.05203007906675339 0.03999999910593033
			vertex 0.0065748319029808044 0.050754107534885406 0.03999999910593033
		endloop
	endfacet
	facet normal 0 0 1
		outer loop
			vertex 0.02500000037252903 0.07199999690055847 0.03999999910593033
			vertex 0.009399999864399433 0.060999996960163116 0.03999999910593033
			vertex 0.02159999869763851 0.060999996960163116 0.03999999910593033
		endloop
	endfacet
	facet normal 0 0 1
		outer loop
			vertex 0.02500000037252903 0.07199999690055847 0.03999999910593033
			vertex 0.02159999869763851 0.060999996960163116 0.03999999910593033
			vertex 0.02159999869763851 0.04529999941587448 0.03999999910593033
		endloop
	endfacet
	facet normal 0 0 1
		outer loop
			vertex 0.02500000037252903 0.07199999690055847 0.03999999910593033
			vertex -0.02500000037252903 0.07199999690055847 0.03999999910593033
			vertex 0.009399999864399433 0.060999996960163116 0.03999999910593033
		endloop
	endfacet
	facet normal 0 0 1
		outer loop
			vertex 0.02500000037252903 0 0.03999999910593033
			vertex 0.02500000037252903 0.07199999690055847 0.03999999910593033
			vertex 0.02159999869763851 0.04529999941587448 0.03999999910593033
		endloop
	endfacet
	facet normal 0 0 1
		outer loop
			vertex 0.009399999864399433 0.04529999941587448 0.03999999910593033
			vertex 0.009399999864399433 0.060999996960163116 0.03999999910593033
			vertex 0.007097527850419283 0.04938746616244316 0.03999999910593033
		endloop
	endfacet
	facet normal 0 0 1
		outer loop
			vertex 0.007097527850419283 0.04938746616244316 0.03999999910593033
			vertex 0.009399999864399433 0.060999996960163116 0.03999999910593033
			vertex 0.0065748319029808044 0.050754107534885406 0.03999999910593033
		endloop
	endfacet
	facet normal 0 -1 0
		outer loop
			vertex -0.02500000037252903 0 0
			vertex -0.013399999588727951 0 0.02969999983906746
			vertex -0.02500000037252903 0 0.03999999910593033
		endloop
	endfacet
	facet normal 0 -1 0
		outer loop
			vertex -0.013399999588727951 0 0.010300000198185444
			vertex -0.013399999588727951 0 0.02969999983906746
			vertex -0.02500000037252903 0 0
		endloop
	endfacet
	facet normal 0 -1 0
		outer loop
			vertex 0.02500000037252903 0 0.03999999910593033
			vertex -0.013399999588727951 0 0.02969999983906746
			vertex 0.013399999588727951 0 0.02969999983906746
		endloop
	endfacet
	facet normal 0 -1 0
		outer loop
			vertex 0.02500000037252903 0 0.03999999910593033
			vertex -0.02500000037252903 0 0.03999999910593033
			vertex -0.013399999588727951 0 0.02969999983906746
		endloop
	endfacet
	facet normal 0 -1 0
		outer loop
			vertex 0.02500000037252903 0 0
			vertex 0.013399999588727951 0 0.010300000198185444
			vertex -0.013399999588727951 0 0.010300000198185444
		endloop
	endfacet
	facet normal 0 -1 0
		outer loop
			vertex 0.02500000037252903 0 0
			vertex 0.013399999588727951 0 0.02969999983906746
			vertex 0.013399999588727951 0 0.010300000198185444
		endloop
	endfacet
	facet normal 0 -1 0
		outer loop
			vertex 0.02500000037252903 0 0
			vertex -0.013399999588727951 0 0.010300000198185444
			vertex -0.02500000037252903 0 0
		endloop
	endfacet
	facet normal 0 -1 0
		outer loop
			vertex 0.02500000037252903 0 0
			vertex 0.02500000037252903 0 0.03999999910593033
			vertex 0.013399999588727951 0 0.02969999983906746
		endloop
	endfacet
endsolid exported
